<?xml version="1.0" encoding="UTF-8"?><svg id="Layer_1" xmlns="http://www.w3.org/2000/svg" viewBox="0 0 200 94.98"><defs><style>.cls-1,.cls-2{fill:#bf4cdb;}.cls-3{letter-spacing:0em;}.cls-4{fill:#400d4c;}.cls-2{font-family:Campton-Bold, Campton;font-size:29.39px;font-weight:700;}.cls-5{letter-spacing:-.01em;}.cls-6{letter-spacing:-.03em;}</style></defs><rect class="cls-4" x="-1.18" y="-1.86" width="204.71" height="96.84"/><text class="cls-2" transform="translate(67.51 58.78)"><tspan class="cls-6" x="0" y="0">B</tspan><tspan class="cls-3" x="19.51" y="0">AZA</tspan><tspan class="cls-5" x="83.7" y="0">R</tspan><tspan x="103.89" y="0">R</tspan></text><path class="cls-1" d="M56.73,35.8c-1.48-5.27-6.56-5.25-11.07-5.49-6.28-.34-12.9-.33-19.2-.18-3.28.08-10.48-.05-13.3.81-3.18.97-4.63,3.82-5.07,6.88-.63,4.42-.81,17.19.36,21.29,1.49,5.23,6.73,5.19,11.13,5.43,9.52.52,21.22.67,30.68-.29,2.97-.3,5.65-2.29,6.47-5.2,1.15-4.1,1.15-19.15,0-23.25ZM44.74,60.32c0,.6-.49,1.09-1.09,1.09h-21.91c-.6,0-1.09-.49-1.09-1.09v-.54c0-.6.49-1.09,1.09-1.09h21.91c.6,0,1.09.49,1.09,1.09v.54ZM49.1,56.86H16.29c-.93,0-1.69-.76-1.69-1.69s.76-1.69,1.69-1.69h32.81c.93,0,1.69.76,1.69,1.69s-.76,1.69-1.69,1.69Z"/></svg>