<?xml version="1.0" encoding="UTF-8"?><svg id="Layer_1" xmlns="http://www.w3.org/2000/svg" viewBox="0 0 200 94.98"><defs><style>.cls-1{fill:#bf4cdb;}.cls-2{fill:#400d4c;}</style></defs><rect class="cls-2" x="-1.18" y="-1.86" width="204.71" height="96.84"/><path class="cls-1" d="M86.87,53.22c0,3.32-2.67,5.55-7.14,5.55h-10.46v-19.98h9.88c4.32,0,6.85,2.06,6.85,5.32,0,1.85-1.03,3.76-2.76,4.38,2.44.53,3.64,2.59,3.64,4.73ZM74.24,46.93h4.11c1.88,0,2.91-.85,2.91-2.15s-1-1.94-2.91-1.94h-4.11v4.08ZM79.06,54.66c2.06,0,2.97-.91,2.97-2.09,0-1.23-1.03-1.85-2.85-1.85h-4.94v3.94h4.82Z"/><path class="cls-1" d="M93.99,55.34l-1.32,3.44h-5.29l8.49-20.1h4.76l8.46,20.1h-5.29l-1.35-3.44h-8.46ZM98.22,44.47l-2.59,6.64h5.17l-2.59-6.64Z"/><path class="cls-1" d="M127.75,58.78h-17.31v-2.35l9.9-13.25h-9.4v-4.38h16.63v2.35l-9.49,13.25h9.67v4.38Z"/><path class="cls-1" d="M135.75,55.34l-1.32,3.44h-5.29l8.49-20.1h4.76l8.46,20.1h-5.29l-1.35-3.44h-8.46ZM139.98,44.47l-2.59,6.64h5.17l-2.59-6.64Z"/><path class="cls-1" d="M161.7,52.99h-3.76v5.79h-4.97v-19.98h8.73c4.97,0,8.29,2.7,8.29,7.02,0,2.62-1.26,4.73-3.38,5.97l4.7,6.99h-5.79l-3.82-5.79ZM161.61,48.52c1.91,0,3.41-1.06,3.41-2.7s-1.5-2.65-3.41-2.65h-3.67v5.35h3.67Z"/><path class="cls-1" d="M181.89,52.99h-3.76v5.79h-4.97v-19.98h8.73c4.97,0,8.29,2.7,8.29,7.02,0,2.62-1.26,4.73-3.38,5.97l4.7,6.99h-5.79l-3.82-5.79ZM181.8,48.52c1.91,0,3.41-1.06,3.41-2.7s-1.5-2.65-3.41-2.65h-3.67v5.35h3.67Z"/><path class="cls-1" d="M56.73,35.8c-1.48-5.27-6.56-5.25-11.07-5.49-6.28-.34-12.9-.33-19.2-.18-3.28.08-10.48-.05-13.3.81-3.18.97-4.63,3.82-5.07,6.88-.63,4.42-.81,17.19.36,21.29,1.49,5.23,6.73,5.19,11.13,5.43,9.52.52,21.22.67,30.68-.29,2.97-.3,5.65-2.29,6.47-5.2,1.15-4.1,1.15-19.15,0-23.25ZM44.74,60.32c0,.6-.49,1.09-1.09,1.09h-21.91c-.6,0-1.09-.49-1.09-1.09v-.54c0-.6.49-1.09,1.09-1.09h21.91c.6,0,1.09.49,1.09,1.09v.54ZM49.1,56.86H16.29c-.93,0-1.69-.76-1.69-1.69s.76-1.69,1.69-1.69h32.81c.93,0,1.69.76,1.69,1.69s-.76,1.69-1.69,1.69Z"/></svg>