<?xml version="1.0" encoding="UTF-8"?><svg id="Layer_1" xmlns="http://www.w3.org/2000/svg" xmlns:xlink="http://www.w3.org/1999/xlink" viewBox="0 0 200 94.98"><defs><style>.cls-1{fill:url(#linear-gradient);}.cls-2{letter-spacing:-.14em;}.cls-3{font-family:Campton-Bold, Campton;font-size:28.39px;font-weight:700;}.cls-3,.cls-4{fill:#000b25;}</style><linearGradient id="linear-gradient" x1="-2.27" y1="1.61" x2="202.69" y2="93.84" gradientUnits="userSpaceOnUse"><stop offset="0" stop-color="#aa5cc3"/><stop offset="1" stop-color="#00a4dc"/></linearGradient></defs><rect class="cls-1" x="-3.83" y="-.86" width="207.36" height="96.84"/><text class="cls-3" transform="translate(62.45 57.65)"><tspan x="0" y="0">JEL</tspan><tspan class="cls-2" x="51.61" y="0">L</tspan><tspan x="64.24" y="0">YFIN</tspan></text><text/><g id="icon-transparent"><path id="inner-shape" class="cls-4" d="M32.7,41.65c-2.19,0-9.26,12.82-8.19,14.98s15.31,2.14,16.37,0-5.98-14.98-8.19-14.98Z"/><path id="outer-shape" class="cls-4" d="M32.7,22.49c-6.62,0-27.91,38.61-24.67,45.14s46.13,6.45,49.34,0c3.21-6.45-18.05-45.14-24.67-45.14ZM48.87,61.98c-2.11,4.22-30.2,4.28-32.33,0-2.13-4.28,11.83-29.58,16.16-29.58s18.28,25.35,16.17,29.58Z"/></g></svg>