<?xml version="1.0" encoding="UTF-8"?><svg id="Layer_1" xmlns="http://www.w3.org/2000/svg" xmlns:xlink="http://www.w3.org/1999/xlink" viewBox="0 0 200 94.98"><defs><style>.cls-1{fill:none;}.cls-2{fill:url(#linear-gradient-9);fill-rule:evenodd;}.cls-3{fill:url(#linear-gradient-8);}.cls-4{fill:url(#linear-gradient-7);}.cls-5{fill:url(#linear-gradient-5);}.cls-6{fill:url(#linear-gradient-6);}.cls-7{fill:url(#linear-gradient-4);}.cls-8{fill:url(#linear-gradient-3);}.cls-9{fill:url(#linear-gradient-2);}.cls-10{fill:url(#linear-gradient);}.cls-11{fill:url(#linear-gradient-10);}.cls-12{fill:url(#linear-gradient-11);}.cls-13{fill:#7e78f8;}</style><linearGradient id="linear-gradient" x1="23.8" y1="123.61" x2="175.9" y2="-28.49" gradientUnits="userSpaceOnUse"><stop offset="0" stop-color="#0d002a"/><stop offset="1" stop-color="#2c687d"/></linearGradient><linearGradient id="linear-gradient-2" x1="-2436.08" y1="2612.52" x2="-2437.71" y2="2628.25" gradientTransform="translate(4281.19 -4518.28) scale(1.75)" gradientUnits="userSpaceOnUse"><stop offset="0" stop-color="#502d95"/><stop offset=".1" stop-color="#6d37ac"/><stop offset=".57" stop-color="#6786d1"/></linearGradient><linearGradient id="linear-gradient-3" x1="-2426.62" y1="2613.49" x2="-2428.25" y2="2629.23" xlink:href="#linear-gradient-2"/><linearGradient id="linear-gradient-4" x1="-2091.02" y1="2331.42" x2="-2091.02" y2="2345.73" gradientTransform="translate(4470.48 -4888.62) scale(2.12)" gradientUnits="userSpaceOnUse"><stop offset="0" stop-color="#763dcd"/><stop offset=".22" stop-color="#8d61eb"/><stop offset=".37" stop-color="#8c86ec"/><stop offset=".64" stop-color="#748ce8"/><stop offset=".9" stop-color="#6ba1e6"/></linearGradient><linearGradient id="linear-gradient-5" x1="-2098.2" x2="-2098.2" xlink:href="#linear-gradient-4"/><linearGradient id="linear-gradient-6" x1="-2101.92" x2="-2101.92" xlink:href="#linear-gradient-4"/><linearGradient id="linear-gradient-7" x1="-2094.73" x2="-2094.73" y2="2345.73" xlink:href="#linear-gradient-4"/><linearGradient id="linear-gradient-8" x1="-1911.26" y1="2547.24" x2="-1893.29" y2="2567.19" gradientTransform="translate(3437.32 -4529.63) scale(1.79)" gradientUnits="userSpaceOnUse"><stop offset="0" stop-color="#c395fc"/><stop offset="1" stop-color="#4f65f5"/></linearGradient><linearGradient id="linear-gradient-9" x1="-1082.71" y1="6989.49" x2="-1082.71" y2="7015.69" gradientTransform="translate(569.29 -3544.34) scale(.51)" gradientUnits="userSpaceOnUse"><stop offset="0" stop-color="#fff" stop-opacity=".4"/><stop offset="1" stop-color="#fff" stop-opacity="0"/></linearGradient><linearGradient id="linear-gradient-10" x1="-1597.36" y1="3939.64" x2="-1613.53" y2="3951.52" gradientTransform="translate(1662.34 -3985.15) scale(1.02)" gradientUnits="userSpaceOnUse"><stop offset="0" stop-color="#f9f9f9"/><stop offset="1" stop-color="#f9f9f9" stop-opacity="0"/></linearGradient><linearGradient id="linear-gradient-11" x1="-1476.1" y1="3051.37" x2="-1468.28" y2="3059.34" gradientTransform="translate(2131.72 -4329.1) scale(1.43)" gradientUnits="userSpaceOnUse"><stop offset="0" stop-color="#0043a2"/><stop offset="1" stop-color="#00133a"/></linearGradient></defs><rect class="cls-10" x="-3.83" y="-.86" width="207.36" height="96.84"/><path class="cls-13" d="M63.86,48.86c0,4.34-2.39,6.74-6.39,6.74-3.62,0-6.07-2.18-6.23-6.01h3.82c.09,1.55,1.12,2.39,2.53,2.39s2.37-1.13,2.37-3.12v-9.58h3.91v9.58Z"/><path class="cls-13" d="M70.21,45.65h6.87v3.38h-6.87v2.77h7.85v3.45h-11.69v-15.97h11.69v3.45h-7.85v2.91Z"/><path class="cls-13" d="M91.73,55.25h-11.49v-15.97h3.84v12.47h7.64v3.5Z"/><path class="cls-13" d="M105.04,55.25h-11.49v-15.97h3.84v12.47h7.64v3.5Z"/><path class="cls-13" d="M112.44,50.44v4.81h-3.87v-4.81l-6.12-11.15h4.25l3.78,6.95,3.8-6.95h4.25l-6.1,11.15Z"/><path class="cls-13" d="M131.69,44.24h-3.87c-.21-1.2-.91-2.16-2.55-2.16-1.36,0-2.25.61-2.25,1.64,0,.92.64,1.32,1.87,1.57l2.16.52c2.84.63,4.66,1.83,4.66,4.58,0,3.19-2.55,5.19-6.42,5.19-3.48,0-6.62-1.74-6.98-5.68h3.87c.25,1.41,1.41,2.33,3.23,2.33,1.37,0,2.18-.56,2.18-1.46,0-.56-.3-1.15-1.64-1.41l-2.55-.56c-3.05-.68-4.48-2.11-4.48-4.65,0-3.19,2.5-5.21,6.14-5.21,2.5,0,6.23,1.01,6.62,5.31Z"/><path class="cls-13" d="M137.87,45.65h6.87v3.38h-6.87v2.77h7.85v3.45h-11.69v-15.97h11.69v3.45h-7.85v2.91Z"/><path class="cls-13" d="M151.75,45.65h6.87v3.38h-6.87v2.77h7.85v3.45h-11.69v-15.97h11.69v3.45h-7.85v2.91Z"/><path class="cls-13" d="M168.54,50.62h-2.91v4.63h-3.84v-15.97h6.76c3.84,0,6.42,2.16,6.42,5.61,0,2.09-.98,3.78-2.62,4.77l3.64,5.59h-4.48l-2.96-4.63ZM168.48,47.06c1.48,0,2.64-.85,2.64-2.16s-1.16-2.11-2.64-2.11h-2.84v4.27h2.84Z"/><path class="cls-13" d="M184.17,50.62h-2.91v4.63h-3.84v-15.97h6.76c3.85,0,6.42,2.16,6.42,5.61,0,2.09-.98,3.78-2.62,4.77l3.64,5.59h-4.48l-2.96-4.63ZM184.11,47.06c1.48,0,2.64-.85,2.64-2.16s-1.16-2.11-2.64-2.11h-2.84v4.27h2.84Z"/><rect class="cls-1" x="79.02" y="76.74" width="64.15" height="0"/><path class="cls-9" d="M19.96,52.54l-3.26-.73s-.75,4.79-1.04,7.19c-.46,3.88-1.02,9.25-.8,13.35.24,4.52,1.47,8.87,1.89,8.87s-.22-2.77.06-8.86c.18-4.06.86-8.94,1.67-13.35.4-2.18,1.56-6.45,1.56-6.45h-.07v-.02Z"/><path class="cls-8" d="M33.73,52.2h1c1.34,5,1.6,12.22,1.31,17.66-.31,5.98-1.96,11.75-2.49,11.75s.29-3.66-.08-11.74c-.27-5.38-1.4-10.44-1.52-17.67h1.79Z"/><path class="cls-7" d="M36.75,36.54h1.61c2.15,8,3.15,19.57,2.68,28.28-.51,9.6-3.13,18.82-4,18.82s.46-5.87-.13-18.81c-.4-8.63-2.84-16.73-3.03-28.3h2.88Z"/><path class="cls-5" d="M23.07,36.36h-1.61c-2.15,8-3.15,19.57-2.68,28.28.51,9.6,3.13,18.82,4,18.82s-.46-5.87.13-18.81c.4-8.63,2.84-16.73,3.03-28.3h-2.88Z"/><path class="cls-6" d="M18.11,32.72l-3.65-1.31s-1.34,8.54-1.85,12.83c-.81,6.93-2.42,16.51-2.02,23.84.44,8.07,2.63,15.84,3.36,15.84s-.39-4.94.12-15.83c.34-7.26,2.56-14.14,3.31-23.86.3-3.86.88-11.54.88-11.54h-.16Z"/><path class="cls-4" d="M30.18,36.54l-3.3.56s.44,6.41.44,10.04c0,5.91.23,11.87.22,18.07-.02,7.12,1.17,19.05,1.79,19.05s2.62-15.35,3.05-24.53c.28-6.13-.63-11.49-.79-15.16-.15-3.26-.6-7.66-.6-7.66l-.8-.36Z"/><path class="cls-3" d="M48.35,38.49c0,8.31-1.41,8.82-3.72,12.34-1.67,2.53,1.7,4.48.35,5.18-1.61.83-1.1-.68-4.3-1.53-1.39-.36-4.41.04-5.63.28-1.21.23-4.91-1.82-5.89-2.09-1.46-.4-5.05,1.51-7.24,1.51s-4.47-1.91-7.38-1.12c-3.46.93-7.63,3.18-8.25,2.44-1.21-1.41,2.65-2.49,1.21-5-.91-1.6-4.04-5.79-4.13-10.03-.29-13.63,11-25.15,23.1-25.15s21.89,10.49,21.89,22.23"/><path class="cls-2" d="M25.7,19.63c-6.61,0-15.84,6.84-15.84,13.45,0,.74-.59,1.33-1.33,1.33s-1.33-.59-1.33-1.33c0-8.07,10.42-16.1,18.5-16.1.74,0,1.33.59,1.33,1.33s-.6,1.32-1.33,1.32"/><path class="cls-11" d="M35.48,44.63c-.7,1.15-1.66,2.07-2.78,2.7-.48.27-.99.47-1.52.63-1.58.71-3.35,1.09-5.15,1.12-6.14.11-11.24-3.82-11.45-8.8-.1-2.44,1.37-4.98,2.49-6.93.95-1.66,2.6-4.5,4.76-5.63,4.41-2.32,10.37.13,13.34,5.51.86,1.56,1.41,3.26,1.6,4.97.13.56.22,1.12.22,1.69.02,1.47-.41,2.94-1.23,4.24-.08.17-.17.33-.27.48,0,.01-.01.01-.01.01"/><path class="cls-12" d="M25.77,32.41c3.83,0,6.93,3.11,6.93,6.93s-3.11,6.93-6.93,6.93-6.93-3.11-6.93-6.93c0-.71.11-1.39.3-2.04.54,1.21,1.75,2.04,3.15,2.04,1.91,0,3.46-1.56,3.46-3.46,0-1.4-.83-2.62-2.04-3.15.65-.21,1.33-.3,2.05-.31"/></svg>