<?xml version="1.0" encoding="UTF-8"?><svg id="Layer_1" xmlns="http://www.w3.org/2000/svg" xmlns:xlink="http://www.w3.org/1999/xlink" viewBox="0 0 200 94.98"><defs><style>.cls-1{fill:none;}.cls-2{fill:url(#linear-gradient);}.cls-3{fill:#000b25;}</style><linearGradient id="linear-gradient" x1="-2.27" y1="1.61" x2="202.69" y2="93.84" gradientUnits="userSpaceOnUse"><stop offset="0" stop-color="#aa5cc3"/><stop offset="1" stop-color="#00a4dc"/></linearGradient></defs><rect class="cls-2" x="-3.83" y="-.86" width="207.36" height="96.84"/><path class="cls-3" d="M78.71,49.93c0,5.25-2.98,8.15-7.98,8.15-4.51,0-7.58-2.64-7.78-7.27h4.77c.11,1.87,1.39,2.89,3.15,2.89s2.95-1.36,2.95-3.77v-11.58h4.88v11.58Z"/><path class="cls-3" d="M86.64,46.04h8.57v4.09h-8.57v3.35h9.79v4.17h-14.59v-19.3h14.59v4.17h-9.79v3.52Z"/><path class="cls-3" d="M113.49,57.65h-14.33v-19.3h4.8v15.07h9.54v4.23Z"/><path class="cls-3" d="M130.09,57.65h-14.33v-19.3h4.8v15.07h9.54v4.23Z"/><path class="cls-3" d="M139.32,51.83v5.82h-4.83v-5.82l-7.63-13.48h5.31l4.71,8.4,4.74-8.4h5.31l-7.61,13.48Z"/><path class="cls-3" d="M153.6,46.67h8.29v4.17h-8.29v6.81h-4.8v-19.3h14.42v4.23h-9.62v4.09Z"/><path class="cls-3" d="M170.15,57.65h-4.8v-19.3h4.8v19.3Z"/><path class="cls-3" d="M191.29,57.65h-3.69l-9.25-10.59v10.59h-4.8v-19.3h3.66l9.31,10.87v-10.87h4.77v19.3Z"/><rect class="cls-1" x="79.02" y="76.74" width="64.15" height="0"/><g id="icon-transparent"><path id="inner-shape" class="cls-3" d="M32.7,41.65c-2.19,0-9.26,12.82-8.19,14.98s15.31,2.14,16.37,0-5.98-14.98-8.19-14.98Z"/><path id="outer-shape" class="cls-3" d="M32.7,22.49c-6.62,0-27.91,38.61-24.67,45.14,3.24,6.52,46.13,6.45,49.34,0,3.21-6.45-18.05-45.14-24.67-45.14ZM48.87,61.98c-2.11,4.22-30.2,4.28-32.33,0-2.13-4.28,11.83-29.58,16.16-29.58s18.28,25.35,16.17,29.58Z"/></g></svg>