<?xml version="1.0" encoding="UTF-8"?><svg id="Layer_1" xmlns="http://www.w3.org/2000/svg" viewBox="0 0 200 94.98"><defs><style>.cls-1{fill:#3d1d13;}.cls-2{fill:#893522;}.cls-3{fill:#dfe2dd;}.cls-4{fill:#a5b6b2;}.cls-5{fill:#f8d90e;}.cls-6{fill:#f7d80f;}.cls-7{fill:#fdfdfc;}.cls-8{fill:#c74d1f;}.cls-9{fill:#f4844e;}.cls-10{fill:#db8963;}.cls-11{fill:#fee4d3;}.cls-12{fill:#fcf9f8;}.cls-13{fill:#87301c;}.cls-14{fill:#3e1e13;}.cls-15{fill:#f7a27a;}.cls-16{fill:#fee3d2;}.cls-17{fill:#f26a30;}.cls-18{fill:#e56002;}.cls-19{fill:#d5cdc9;}.cls-20{fill:#db8b67;}</style></defs><rect class="cls-11" x="-1.18" y="-1.86" width="204.71" height="96.84"/><path class="cls-18" d="M68.54,39.89c4.22,0,6.73,2.11,6.73,5.7s-2.55,5.81-6.89,5.81h-1.72v3.45h-4.42v-14.96h6.29ZM68.49,47.63c1.43,0,2.29-.77,2.29-2.05,0-1.21-.86-1.94-2.29-1.94h-1.83v3.98h1.83Z"/><path class="cls-18" d="M83.5,50.91h-2.53v3.94h-4.42v-14.96h6.78c4.05,0,6.54,2,6.54,5.43,0,1.8-.77,3.34-2.18,4.36l3.21,5.17h-5.04l-2.35-3.94ZM83.28,47c1.21,0,2.11-.68,2.11-1.72s-.9-1.63-2.11-1.63h-2.31v3.34h2.31Z"/><path class="cls-18" d="M107.26,47.37c0,4.42-3.34,7.81-8.08,7.81s-8.08-3.39-8.08-7.81,3.34-7.81,8.08-7.81,8.08,3.39,8.08,7.81ZM102.75,47.37c0-1.96-1.47-3.65-3.56-3.65s-3.56,1.69-3.56,3.65,1.47,3.65,3.56,3.65,3.56-1.69,3.56-3.65Z"/><path class="cls-18" d="M125.92,54.94h-4.22l-2.68-8.6-2.68,8.6h-4.25l-4.73-15.05h4.71l2.33,8.18,2.82-8.18h3.61l2.79,8.21,2.35-8.21h4.71l-4.75,15.05Z"/><path class="cls-18" d="M143.51,54.85h-11.53v-14.96h4.42v11.13h7.11v3.83Z"/><path class="cls-18" d="M149.52,52.72l-.77,2.13h-4.73l6.21-15.05h4.33l6.21,15.05h-4.71l-.79-2.13h-5.74ZM152.38,44.86l-1.54,4.25h3.1l-1.56-4.25Z"/><path class="cls-18" d="M168.94,50.91h-2.53v3.94h-4.42v-14.96h6.78c4.05,0,6.54,2,6.54,5.43,0,1.8-.77,3.34-2.18,4.36l3.21,5.17h-5.04l-2.35-3.94ZM168.73,47c1.21,0,2.11-.68,2.11-1.72s-.9-1.63-2.11-1.63h-2.31v3.34h2.31Z"/><path class="cls-18" d="M184.32,50.91h-2.53v3.94h-4.42v-14.96h6.78c4.05,0,6.54,2,6.54,5.43,0,1.8-.77,3.34-2.18,4.36l3.21,5.17h-5.04l-2.35-3.94ZM184.1,47c1.21,0,2.11-.68,2.11-1.72s-.9-1.63-2.11-1.63h-2.31v3.34h2.31Z"/><g id="_90uooT.tif"><path class="cls-18" d="M34.89,22.49c.74.24,1.54.22,2.3.36,10.24,1.78,18.32,9.72,20.35,19.91.15.76.13,1.56.36,2.3-.1,1.58.14,3.33,0,4.88-.78,8.65-6.79,16.75-14.61,20.28-17.35,7.83-36.39-5.64-35.31-24.45.7-12.14,11.03-22.46,23.11-23.28h3.8ZM33.91,27.48c-.43.1-1.28-.04-1.79,0-15.6,1.17-24.66,18.05-15.68,31.25,7.68,11.28,24.35,11.58,32.49.75l.06-.32c.21,0,.31-.12.42-.29,2.29-3.6,3.53-7.45,3.49-11.76,0-.14,0-.29,0-.43-.33-9.19-7.09-17.2-16.17-18.77-.05-.61-.75-1.27-1.37-1.3-.8-.03-1.12.78-1.46.86Z"/><path class="cls-11" d="M33.91,27.48c-.12,1.03-.23,2.18.14,3.17.11.31.41.55.51.74,0,.01-.09.15-.05.23.3.51.57.73,1.03,1.08,1.64,1.25,2.7,1.01,4.56,1.3.54.08,1.84.26,2.28.43.58.22,1.1,1.03,1.19,1.63.04.23-.02.52,0,.76-1.16-.44-2.27-.47-3.47-.54-.89-.06-1.75-.11-2.75.01-.71.09-1.8.2-2.35.64-1.31.04-2.68.99-3.69,1.74-.35.26-1.04.93-1.27,1.06-.48.27-1.72.47-2.39.76-.73.31-1.8.95-2.42,1.43-.01-.42-.42-1.02-.71-1.3-.11-.1-.23-.09-.26-.11-2.32-1.8-5.08.76-3.89,3.3.05.1.18.14.2.18.11.18.09.35.3.54s.84.56,1.11.54c.05.25-.09.33-.21.49-.57.74-1.13,1.44-1.63,2.22l-1.73,1.82c-.52.75-1.12,1.49-1.8,2.09l-.05.22c-.02,2.08.02,4.16,0,6.24,0,.18.07.48-.11.6-8.98-13.2.08-30.08,15.68-31.25.51-.04,1.36.1,1.79,0Z"/><path class="cls-16" d="M52.91,46.69h-.87c-1.16-3.09-3.2-6.41-5.75-8.46,0-.19.07-.36.11-.54.17-.8.15-1.48,0-2.28-.36-1.88-1.38-2.86-3.04-3.58-1.13-.49-1.24-.36-2.39-.54-.82-.13-1.94-.25-2.71-.43-.26-.06-1.03-.39-1.19-.54-.64-.59-.28-1.73-.33-2.39,9.08,1.58,15.84,9.59,16.17,18.77Z"/><path class="cls-2" d="M52.91,46.69c0,.14,0,.29,0,.43-.21.08-.3.28-.43.43-.16.11-.37-.38-.43-.54-.03-.08.03-.25,0-.33h.87Z"/><path class="cls-7" d="M36.74,27.92c.05.66-.31,1.8.33,2.39-.58.61-1.68.96-2.5,1.09-.1-.19-.4-.43-.51-.74-.37-.99-.27-2.14-.14-3.17.33-.08.65-.89,1.46-.86.62.02,1.32.68,1.37,1.3Z"/><path class="cls-8" d="M52.04,47.01c.06.17.27.65.43.54-.96,1.12-1.89,2.28-2.82,3.42-.22.26-.28.67-.65.81-1.08.02-2.17-.03-3.26,0l.98-1.19c.75,0,1.53.05,2.28-.06.81-.9,1.5-1.89,2.28-2.82.2-.23.46-.63.76-.71Z"/><path class="cls-19" d="M22.52,50.6c.29.37.92.9,1.36,1.09.13-.37-.29-.75-.49-1.09h4.02s0,1.19,0,1.19c-.23-.06-.39.11-.43.11-1.51.06-3.05,0-4.56,0-.47-.4-.74-.82-1.09-1.3h1.19Z"/><path class="cls-19" d="M39.45,50.6c1.05,0,2.1,0,3.15,0-.27.44-.46.82-.87,1.19-1.26,0-2.62.24-3.91.11-.13-.01-.41-.22-.65-.11.11-.42.15-.78,0-1.19.76,0,1.52,0,2.28,0Z"/><path class="cls-2" d="M20.13,47.77c-.22.35-1.5,2.5-1.52,2.71,0,.03,0,.08,0,.11.1.38,1.06.88,1.19,1.3h-3.26l.05-.22c.68-.59,1.27-1.34,1.8-2.09l1.73-1.82Z"/><path class="cls-19" d="M20.89,50.6c.1.54.24.84.54,1.3h-1.63c-.13-.43-1.09-.92-1.19-1.3h2.28Z"/><path class="cls-2" d="M43.57,49.73c0,.26.03.62,0,.87-.05.39-.27.93-.43,1.3-.48,0-1.06-.11-1.41-.11.41-.38.59-.76.87-1.19.19-.31.58-.61.54-1.09l.32-.98c-.02.41.1.78.11,1.19Z"/><path class="cls-19" d="M45.2,50.6c.12,0,.23.05.33.11-.05.38-.62.79-.87,1.09-.42,0-1,.1-1.52.11.16-.37.38-.91.43-1.3.54.03,1.09-.04,1.63,0Z"/><path class="cls-3" d="M29.14,52.98c0,.22.1.43.11.65.02.67-.26.66-.76.33-.71-.47-.53-.89-.65-1.52.44.27.8.45,1.3.54Z"/><path class="cls-13" d="M46.61,50.6h.11l-.98,1.19c-.36,0-.72,0-1.09,0,.25-.29.81-.71.87-1.09,0-.03,0-.07,0-.11.36,0,.72,0,1.09,0Z"/><path class="cls-2" d="M21.33,50.6c.35.49.61.9,1.09,1.3-.32,0-.65,0-.98,0-.3-.46-.44-.76-.54-1.3-.03-.15-.19-.42-.05-.54.3.01.36.37.49.54Z"/><path class="cls-3" d="M35.22,54.07c-.17.05-.33.16-.54.11,0-.11,0-.22,0-.33s0-.22,0-.33c.3.01.92-.1,1.19-.22-.11.35-.39.54-.65.76Z"/><path class="cls-17" d="M40.1,36.27l2.82,1.09c.44.43,1.15.64,1.63.98.35.25.91.77,1.25,1.08,1.34,1.22,2.38,2.69,3.47,4.12-.66-1.5-1.53-2.99-2.6-4.23-.27-.31-1.37-1.24-1.47-1.47-.14-.32.58.01.65.06.03.02.37.28.43.33,2.56,2.05,4.59,5.38,5.75,8.46.03.08-.03.25,0,.33-.29.08-.56.48-.76.71-.78.92-1.47,1.92-2.28,2.82-.75.11-1.52.06-2.28.06h-.11c-.58-1.7-1.39-3.43-2.41-4.92-.15-.22-.67-.72-.74-.89-.07-.18.78-.47.87-.7l2.28,2.39c-.42-1.15-.98-2.32-1.63-3.36.77-1.47-.53-3.42-2.12-3.48-.14,0-.25.12-.27.12-.87-.05-.89-.26-1.48-.63-1.18-.73-2.06-1.24-3.4-1.65-.32-.1-.6-.24-.98-.33-.45-.1-1.29-.23-1.74-.22.55-.43,1.64-.55,2.35-.64,1-.12,1.86-.07,2.75-.01ZM49.28,47.49c.21.25.35.7.69.77-.48-2.21-1.29-4.53-2.62-6.39-.1-.15-.91-1.21-1.07-1.05.27.66.77,1.23,1.1,1.88.37.73.77,1.65.85,2.46l-2.01-1.84-.16.16c1,1.39,2.12,2.69,3.21,4.01ZM45.96,43.32c.1-.1-.17-.35-.27-.43-.02.18.09.62.27.43ZM49.38,43.65v.11c.07-.04.07-.07,0-.11ZM49.49,43.87v.11c.07-.04.07-.07,0-.11Z"/><path class="cls-17" d="M39.56,40.18l-.61.97c-1.38-.69-2.99-1.39-4.55-1.51-.17-.01-.74-.09-.81.11,2.36.23,4.54,1.44,6.4,2.82.43.32,1.04.74,1.41,1.09,1.39,1.29,2.9,3.77,3.63,5.54.15.36.46,1.05.49,1.41,0,.03,0,.08,0,.11-.1-.06-.21-.1-.33-.11-.42-.45-1.11-.55-1.63-.87-.01-.41-.13-.78-.11-1.19l-.32.98-1.84-.98c.02-.05.22-1.08.22-1.14v-1.63c0-.19-.25-.8-.33-1.03-.67-1.92-2.38-2.64-4.34-1.95-1.29-.76-2.59-1.87-3.94-2.52-.81-.39-1.08-.44-1.89,0-1.36.74-2.74,1.87-3.94,2.84-2.02-.09-3.72.99-4.67,2.71-.69,1.26-.98,2.21-.65,3.69-1.08.19-2.08.7-3.15.98.02-.21,1.3-2.36,1.52-2.71.5-.79,1.07-1.49,1.63-2.22.12-.16.26-.24.21-.49.41-.03.8-.78,1.09-1.09.35-.36.72-.74,1.09-1.09.32-.29.76-.72,1.09-.98.63-.48,1.7-1.12,2.42-1.43.66-.29,1.9-.49,2.39-.76.23-.13.92-.81,1.27-1.06,2.4-.41,4.68-.44,6.91.63.49.23,1.03.74,1.34.89Z"/><path class="cls-13" d="M35,36.92c.45-.01,1.29.12,1.74.22-.35.2-.79.25-1.17.41-.16.07-.29-.06-.24.24l2.39-.33c1.34.41,2.22.92,3.4,1.65.6.37.62.58,1.48.63.49.41.93.73,1.21,1.34.48,1.04.62,1.14,1.17,2.03.65,1.05,1.2,2.21,1.63,3.36l-2.28-2.39c-.21-.06-.38-.46-.46-.51-.06-.04-1.21-.36-1.27-.36.86-1.31-.24-2.91-1.76-2.36-.04.01-.5.27-.52.3-.06-.16-.29-.93-.34-.96-.1-.07-.34.02-.42-.01-.31-.14-.85-.65-1.34-.89-2.23-1.07-4.51-1.04-6.91-.63,1.01-.74,2.38-1.7,3.69-1.74Z"/><path class="cls-13" d="M46.39,37.68l-.54.22c-.07-.04-.79-.37-.65-.06.1.23,1.19,1.15,1.47,1.47,1.07,1.24,1.95,2.74,2.6,4.23-1.09-1.44-2.13-2.9-3.47-4.12-.34-.31-.9-.84-1.25-1.08l.32-.21c-.57-.28-1.14-.62-1.74-.83-.09-.03-.15,0-.21.06l-2.82-1.09c1.2.08,2.31.1,3.47.54-.02-.24.04-.53,0-.76.24,0,.47.13.71.12.15,0,.24-.11.27-.12.72-.08,1.26-.18,1.84-.65.15.79.17,1.48,0,2.28ZM44.71,37.36v.11c.07-.04.07-.07,0-.11ZM45.12,37.57c0-.07-.06-.13-.13-.13s-.13.06-.13.13.06.13.13.13.13-.06.13-.13Z"/><path class="cls-2" d="M24.26,40.5l-.54.87c-.19-.14-.99-.25-1.25-.22-1.11.11-1.58,1.44-.92,2.28l-.98.54s-.15-.07-.2-.18c-1.19-2.53,1.57-5.09,3.89-3.3Z"/><path class="cls-13" d="M43.14,32.69c-.09.29-.21.83-.33,1.09-.09.19-.34.44-.43.65-.44-.17-1.74-.35-2.28-.43.21-.26.38-.45.54-.76.29-.55.32-.79.33-1.41l2.17.87Z"/><path class="cls-13" d="M38.26,30.85c-.47.81-1.38,1.28-2.17,1.74-.13-.01-.38.13-.54.11-.45-.34-.73-.57-1.03-1.08-.04-.07.06-.22.05-.23.82-.13,1.92-.48,2.5-1.09.16.15.94.48,1.19.54Z"/><path class="cls-8" d="M36.09,32.58s.19.12.34.15c1.41.23,2.8.35,4.22.5-.16.31-.33.5-.54.76-1.86-.29-2.92-.06-4.56-1.3.17.03.42-.12.54-.11Z"/><path class="cls-8" d="M44.55,36.05s-.12.11-.27.12c-.24.01-.47-.11-.71-.12-.09-.6-.61-1.41-1.19-1.63.1-.21.35-.47.43-.65.9.18,1.86,1.33,1.74,2.28Z"/><path class="cls-8" d="M23.06,43.98c-.29.3-.67,1.05-1.09,1.09-.27.02-.91-.35-1.11-.54s-.19-.37-.3-.54l.98-.54c.37.46.94.63,1.52.54Z"/><path class="cls-8" d="M25.23,41.91c-.33.25-.77.68-1.09.98.11-.32-.21-1.35-.43-1.52l.54-.87s.16.01.26.11c.29.28.7.87.71,1.3Z"/><path class="cls-17" d="M46.39,35.4c-.59.47-1.12.57-1.84.65.12-.95-.83-2.1-1.74-2.28.12-.25.23-.8.33-1.09s.27-.53.22-.87c1.66.72,2.67,1.7,3.04,3.58Z"/><path class="cls-17" d="M40.97,31.28c0,.18,0,.36,0,.54,0,.62-.04.86-.33,1.41-1.42-.15-2.81-.27-4.22-.5-.14-.02-.3-.14-.34-.15.79-.46,1.7-.93,2.17-1.74.78.18,1.89.3,2.71.43Z"/><path class="cls-2" d="M43.36,31.82c.05.34-.13.59-.22.87l-2.17-.87c0-.18,0-.36,0-.54,1.15.18,1.26.05,2.39.54Z"/><path class="cls-8" d="M46.39,37.68c-.04.18-.11.35-.11.54-.06-.05-.41-.31-.43-.33l.54-.22Z"/><path class="cls-7" d="M27.08,43.11c.26.01,1.1.13,1.3.22.13.05.87.91.98,1.09.16.26.35.69.43.98.23.81.25,1.66.33,2.5-.38.05-.58.44-.54.8.01.11.5.9.54.93.15.1.61-.64,1.15-.23.5.39-.55,1.16.7,1.31v1.63c-.83.45-1.88.83-2.82.65-.5-.09-.87-.28-1.3-.54-.04-.19-.25-.6-.43-.65v-1.19s-4.02,0-4.02,0c-.81-1.4.2-1.36,1.01-2.19.09-.1.24-.09.18-.3-.11-.09-1.56.43-1.93.2s-.2-2.02-.24-2.48c.95-1.72,2.65-2.8,4.67-2.71ZM26.54,45.5s-.14-.05-.23.07c-.06.09-.05.26-.1.36-.03.06-.16.12-.2.29-.38,1.79,1.78,2.81,2.78,1.49,1.09-1.44-.54-3.39-2.26-2.21Z"/><path class="cls-2" d="M22.41,45.82c.04.46-.13,2.25.24,2.48s1.83-.29,1.93-.2c.06.21-.09.21-.18.3-.81.83-1.82.79-1.01,2.19.19.34.62.72.49,1.09-.43-.19-1.07-.72-1.36-1.09-.18-.22-.48-1.04-.76-1.09-.33-1.48-.04-2.43.65-3.69Z"/><path class="cls-12" d="M21.76,49.51c.28.05.58.86.76,1.09h-1.19c-.13-.18-.19-.53-.49-.54-.14.12.02.39.05.54h-2.28s0-.08,0-.11c1.06-.28,2.06-.79,3.15-.98Z"/><path class="cls-7" d="M41.19,44.74c-.15,1.24-.24,3.03-1.95,2.71.17.26.57.34.81.54.81.67,0,1.63-.49,2.28-.08.11-.15.15-.11.33-.76,0-1.52,0-2.28,0,.15.42.11.77,0,1.19-.15.58-.74,1.29-1.3,1.52-.28.11-.9.23-1.19.22-1.16-.04-1.55-.55-2.39-1.09v-1.74c1.09-.15.32-1.17.98-1.46.6-.27.68.2.76.7.66-.4,1.12-2,.11-2.17.06-.69.15-1.4.33-2.06.12-.44.32-1.02.54-1.41.13-.24.56-.84.76-.98.05-.03,1.03-.52,1.09-.54,1.96-.69,3.67.03,4.34,1.95ZM35.33,45.71c-.37.49-.41.67-.32,1.35.11.77.99,1.34,1.75,1.24,1.9-.26,1.99-3.55-.72-3.12-.51.08-.5.25-.71.54Z"/><path class="cls-12" d="M43.14,49.51c.03.48-.35.78-.54,1.09-1.05,0-2.1,0-3.15,0-.04-.17.02-.21.11-.33.19-.02.35-.09.49-.22.18-.15,1.2-1.39,1.24-1.52l1.84.98Z"/><path class="cls-4" d="M32.29,50.7v1.74c-.1-.06-.2-.11-.33-.11v-1.63c.09.01.24.01.33,0Z"/><path class="cls-12" d="M45.2,50.6c-.54-.04-1.09.03-1.63,0,.03-.25,0-.6,0-.87.52.32,1.21.41,1.63.87Z"/><path class="cls-8" d="M42.6,43.22c.07,0,1.22.32,1.27.36.08.05.25.45.46.51-.09.23-.94.53-.87.7s.59.67.74.89c1.01,1.49,1.83,3.22,2.41,4.92-.36,0-.72,0-1.09,0-.03-.35-.34-1.05-.49-1.41-.73-1.77-2.24-4.25-3.63-5.54.41.13.91-.41,1.19-.43Z"/><path class="cls-8" d="M44.98,43.11c-.55-.89-.69-.99-1.17-2.03-.28-.61-.73-.92-1.21-1.34.01,0,.13-.12.27-.12,1.59.06,2.89,2.01,2.12,3.48Z"/><path class="cls-2" d="M37.71,37.47l-2.39.33c-.06-.31.07-.18.24-.24.38-.15.82-.21,1.17-.41.38.08.65.23.98.33Z"/><path class="cls-2" d="M42.92,37.36c.06-.07.12-.1.21-.06.61.2,1.17.54,1.74.83l-.32.21c-.48-.34-1.19-.54-1.63-.98Z"/><path class="cls-13" d="M45.96,43.32c-.18.19-.29-.25-.27-.43.1.08.37.33.27.43Z"/><path class="cls-13" d="M49.28,47.49c-1.08-1.32-2.21-2.62-3.21-4.01l.16-.16,2.01,1.84c-.08-.81-.48-1.74-.85-2.46-.33-.65-.83-1.22-1.1-1.88.16-.16.96.9,1.07,1.05,1.33,1.85,2.14,4.17,2.62,6.39-.35-.07-.49-.52-.69-.77Z"/><path class="cls-13" d="M49.38,43.65c.07.04.07.07,0,.11v-.11Z"/><path class="cls-13" d="M49.49,43.87c.07.04.07.07,0,.11v-.11Z"/><path class="cls-13" d="M36.84,42.78c-.06.02-1.03.51-1.09.54-1.03-.42-2.77-2.41-3.85-2.4-.89,0-2.71,1.9-3.53,2.4-.2-.09-1.04-.21-1.3-.22,1.2-.97,2.58-2.1,3.94-2.84.81-.44,1.08-.39,1.89,0,1.35.65,2.65,1.75,3.94,2.52Z"/><path class="cls-7" d="M23.71,41.37c.23.17.54,1.2.43,1.52-.37.34-.74.72-1.09,1.09-.58.09-1.15-.08-1.52-.54-.66-.84-.19-2.17.92-2.28.26-.03,1.06.08,1.25.22Z"/><path class="cls-12" d="M42.6,43.22c-.28.02-.79.57-1.19.43-.37-.35-.98-.77-1.41-1.09-.04-.42.02-1.1.33-1.41.02-.02.48-.28.52-.3,1.52-.56,2.63,1.05,1.76,2.36Z"/><path class="cls-8" d="M39.56,40.18c.07.03.32-.05.42.01.05.03.28.81.34.96-.3.31-.37,1-.33,1.41-1.86-1.38-4.05-2.59-6.4-2.82.07-.2.64-.12.81-.11,1.56.13,3.17.83,4.55,1.51l.61-.97Z"/><path class="cls-2" d="M41.29,48.53c-.05.13-1.07,1.37-1.24,1.52-.15.12-.3.2-.49.22.49-.65,1.3-1.61.49-2.28-.24-.2-.64-.28-.81-.54,1.71.32,1.8-1.48,1.95-2.71.08.23.33.84.33,1.03v1.63c0,.06-.2,1.08-.22,1.14Z"/><circle class="cls-17" cx="44.99" cy="37.57" r=".13"/><path class="cls-17" d="M44.71,37.36c.07.04.07.07,0,.11v-.11Z"/><path class="cls-17" d="M34.46,45.71c-.18.67-.27,1.37-.33,2.06-.64-.11-1.12.5-1.79.55-.82.06-1.61-.52-2.23-.44-.08-.83-.09-1.69-.33-2.5.67-.28,1.61-1.52,2.34-1.51.6.01,1.8,1.48,2.33,1.83Z"/><path class="cls-17" d="M35.76,43.33c-.2.13-.63.73-.76.98l-2.31-1.43c-1.16-.45-2.42.98-3.33,1.54-.11-.17-.85-1.03-.98-1.09.82-.5,2.64-2.39,3.53-2.4,1.08,0,2.82,1.98,3.85,2.4Z"/><path class="cls-2" d="M34.13,47.77c1.01.17.55,1.77-.11,2.17-.08-.5-.15-.97-.76-.7-.66.3.11,1.31-.98,1.46-.09.01-.24.01-.33,0-1.24-.15-.19-.92-.7-1.31-.53-.42-1,.33-1.15.23-.05-.03-.53-.82-.54-.93-.04-.37.16-.75.54-.8.62-.08,1.41.5,2.23.44.67-.05,1.15-.66,1.79-.55Z"/><path class="cls-13" d="M35,44.3c-.22.39-.43.97-.54,1.41-.53-.35-1.74-1.82-2.33-1.83-.72-.01-1.67,1.23-2.34,1.51-.08-.29-.27-.72-.43-.98.92-.56,2.17-1.99,3.33-1.54l2.31,1.43Z"/><path class="cls-5" d="M26.21,45.93c.08.09.33.35.33.43,0,.01-.12.13-.12.27.06,1.71,2.29,1.34,2.3.11,0-.58-.43-1.08-.99-1.21-.32-.07-.45.07-.55.07-.14,0-.43-.19-.65-.11,1.73-1.18,3.36.77,2.26,2.21-1,1.33-3.16.3-2.78-1.49.04-.17.17-.22.2-.29Z"/><path class="cls-12" d="M26.54,45.5c.22-.09.51.1.65.11.32.54-.06,1.1-.65.76,0-.09-.24-.35-.33-.43.04-.1.03-.28.1-.36.09-.11.2-.05.23-.07Z"/><path class="cls-6" d="M35.33,45.71c-.07.11.09.5.11.65.05.51-.09.98.51,1.28,1.59.78,2.37-1.49.96-2.05-.38-.15-.45,0-.71,0-.05,0-.2-.13-.37-.11-.04,0-.48.19-.5.22.22-.29.2-.45.71-.54,2.71-.43,2.62,2.86.72,3.12-.76.1-1.64-.47-1.75-1.24-.1-.67-.06-.85.32-1.35Z"/><path class="cls-14" d="M27.19,45.6c.1,0,.23-.14.55-.07.55.13.99.63.99,1.21-.01,1.22-2.24,1.6-2.3-.11,0-.14.12-.25.12-.27.59.34.97-.22.65-.76Z"/><path class="cls-1" d="M35.43,46.36c.65.3,1.09-.1.76-.76.26,0,.33-.16.71,0,1.41.55.63,2.82-.96,2.05-.6-.29-.47-.76-.51-1.28Z"/><path class="cls-12" d="M36.19,45.6c.33.66-.11,1.06-.76.76-.01-.15-.18-.54-.11-.65.01-.02.46-.21.5-.22.17-.02.32.11.37.11Z"/><path class="cls-15" d="M43.14,51.9c.52,0,1.1-.1,1.52-.11.36,0,.72,0,1.09,0,1.08-.03,2.17.02,3.26,0v7.38l-.06.32c-8.14,10.83-24.82,10.53-32.49-.75.18-.11.11-.41.11-.6.02-2.08-.02-4.16,0-6.24h4.88c.32,0,.65,0,.98,0,1.51,0,3.05.06,4.56,0,.36.76.58,1.8,1.52,2.06.5.33.78.34.76-.33.47-.1.97-.12,1.43-.25.28-.08,1.32-.62,1.43-.6.1.02.73.69,1.12.83.45.16.97.17,1.44.24,0,.11,0,.22,0,.33.21.05.37-.06.54-.11,1.04-.28,2.01-1.31,2.6-2.17,1.28.13,2.65-.1,3.91-.11.35,0,.93.11,1.41.11ZM44.44,55.15c.05.05-.04,1.29,0,1.52h1.84v-1.52h.7c.1,0,.07-.18.04-.25-.04-.11-1.54-1.81-1.67-1.81-.33.41-1.55,1.47-1.68,1.9-.1.33.67.08.76.16ZM47.15,57.11h-3.58v.65h3.58v-.65Z"/><path class="cls-9" d="M49,59.17v-7.38c.37-.15.43-.55.65-.81.94-1.14,1.87-2.3,2.82-3.42.13-.16.22-.35.43-.43.04,4.3-1.19,8.16-3.49,11.76-.11.17-.21.28-.42.29Z"/><path class="cls-13" d="M44.44,55.15c-.08-.08-.86.17-.76-.16.13-.43,1.35-1.49,1.68-1.9.12,0,1.62,1.69,1.67,1.81.03.07.07.25-.04.26h-.7s0,1.52,0,1.52h-1.84c-.04-.23.05-1.47,0-1.52Z"/><path class="cls-10" d="M32.29,52.44c.84.53,1.23,1.04,2.39,1.09,0,.11,0,.22,0,.33-.47-.07-.99-.08-1.44-.24-.4-.14-1.03-.81-1.12-.83-.1-.02-1.14.52-1.43.6-.46.13-.96.15-1.43.25,0-.22-.1-.43-.11-.65.94.18,1.99-.2,2.82-.65.12,0,.23.04.33.11Z"/><rect class="cls-2" x="43.57" y="57.11" width="3.58" height=".65"/><path class="cls-20" d="M37.82,51.9c-.59.87-1.57,1.89-2.6,2.17.27-.22.54-.41.65-.76.56-.23,1.15-.94,1.3-1.52.24-.11.52.1.65.11Z"/><path class="cls-10" d="M27.4,51.79c.18.05.4.46.43.65.12.63-.06,1.05.65,1.52-.94-.26-1.16-1.3-1.52-2.06.05,0,.2-.17.43-.11Z"/></g></svg>