<?xml version="1.0" encoding="UTF-8"?><svg id="Layer_1" xmlns="http://www.w3.org/2000/svg" viewBox="0 0 200 94.98"><defs><style>.cls-1{fill:none;}.cls-2{fill:#3c76c5;}.cls-3{fill:#4d8ad5;}.cls-4{fill:#4b87d2;}.cls-5{fill:#3770c1;}.cls-6{fill:#5593dc;}.cls-7{fill:#5491da;}.cls-8{fill:#3d77c6;}.cls-9{fill:#4682ce;}.cls-10{fill:#66a6ea;}.cls-11{fill:#518ed8;}.cls-12{fill:#63a3e8;}.cls-13{fill:#528fd9;}.cls-14{fill:#4c87d2;}.cls-15{fill:#5d9ce2;}.cls-16{fill:#5b9ae1;}.cls-17{fill:#3a74c4;}.cls-18{fill:#5390d9;}.cls-19{fill:#6cadf0;}.cls-20{fill:#61a1e6;}.cls-21{fill:#6eb0f2;}.cls-22{fill:#3f7ac8;}.cls-23{fill:#c7e7fe;}.cls-24{fill:#4681ce;}.cls-25{fill:#3973c3;}.cls-26{fill:#417cca;}.cls-27{fill:#62a2e7;}.cls-28{fill:#4a86d1;}.cls-29{fill:#5997df;}.cls-30{fill:#c8e8ff;}.cls-31{fill:#5f9ee4;}.cls-32{fill:#5c9be2;}.cls-33{fill:#528ed8;}.cls-34{fill:#508dd7;}.cls-35{fill:#68a8ec;}.cls-36{fill:#5896de;}.cls-37{fill:#5492db;}.cls-38{fill:#407bc9;}.cls-39{fill:#4e8bd5;}.cls-40{fill:#69aaed;}.cls-41{fill:#609fe5;}.cls-42{fill:#4985d1;}.cls-43{fill:#4884d0;}.cls-44{fill:#3871c1;}.cls-45{fill:#3e78c7;}.cls-46{fill:#528fd8;}.cls-47{fill:#5d9ce3;}.cls-48{fill:#3f79c8;}.cls-49{fill:#5795dd;}.cls-50{fill:#4782cf;}.cls-51{fill:#4d89d4;}.cls-52{fill:#5492da;}.cls-53{fill:#4580cd;}.cls-54{fill:#4c88d3;}.cls-55{fill:#5e9de3;}.cls-56{fill:#6daef0;}.cls-57{fill:#447fcc;}.cls-58{fill:#447ecb;}.cls-59{fill:#3b75c4;}.cls-60{fill:#427dcb;}.cls-61{fill:#356ebf;}.cls-62{fill:#5694dc;}.cls-63{fill:#67a7eb;}.cls-64{fill:#437ecb;}.cls-65{fill:#5a99e0;}.cls-66{fill:#5593db;}.cls-67{fill:#6aabee;}.cls-68{fill:#6eaff1;}.cls-69{fill:#4a86d2;}.cls-70{fill:#4f8cd6;}.cls-71{fill:#65a5e9;}.cls-72{fill:#6bacef;}.cls-73{fill:#4783cf;}.cls-74{fill:#3972c2;}.cls-75{fill:#366fc0;}.cls-76{fill:#64a4e9;}.cls-77{fill:#5391da;}</style></defs><rect class="cls-23" x="-3.83" y="-.86" width="207.36" height="96.84"/><path class="cls-48" d="M63.38,55.25h-3.97v-15.97h3.97v15.97Z"/><path class="cls-48" d="M74.2,42.83v12.42h-3.95v-12.42h-5.1v-3.55h14.14v3.55h-5.1Z"/><path class="cls-48" d="M89.42,42.83v12.42h-3.95v-12.42h-5.1v-3.55h14.14v3.55h-5.1Z"/><path class="cls-48" d="M111.82,47.27c0,4.65-3.64,8.31-8.45,8.31s-8.45-3.66-8.45-8.31,3.64-8.31,8.45-8.31,8.45,3.66,8.45,8.31ZM107.81,47.27c0-2.51-1.86-4.63-4.44-4.63s-4.44,2.11-4.44,4.63,1.86,4.63,4.44,4.63,4.44-2.11,4.44-4.63Z"/><path class="cls-48" d="M121.24,50.62h-3.01v4.63h-3.97v-15.97h6.97c3.97,0,6.62,2.16,6.62,5.61,0,2.09-1.01,3.78-2.7,4.77l3.76,5.59h-4.63l-3.05-4.63ZM121.17,47.05c1.53,0,2.72-.85,2.72-2.16s-1.2-2.11-2.72-2.11h-2.94v4.27h2.94Z"/><path class="cls-48" d="M137.38,50.62h-3.01v4.63h-3.97v-15.97h6.97c3.97,0,6.62,2.16,6.62,5.61,0,2.09-1.01,3.78-2.7,4.77l3.76,5.59h-4.63l-3.05-4.63ZM137.31,47.05c1.53,0,2.72-.85,2.72-2.16s-1.2-2.11-2.72-2.11h-2.94v4.27h2.94Z"/><path class="cls-48" d="M150.5,45.65h7.09v3.38h-7.09v2.77h8.1v3.45h-12.07v-15.97h12.07v3.45h-8.1v2.91Z"/><path class="cls-48" d="M175.54,55.25h-3.05l-7.66-8.76v8.76h-3.97v-15.97h3.03l7.7,8.99v-8.99h3.95v15.97Z"/><path class="cls-48" d="M186.36,42.83v12.42h-3.95v-12.42h-5.1v-3.55h14.14v3.55h-5.1Z"/><rect class="cls-1" x="79.02" y="76.74" width="64.15" height="0"/><g id="_8I95KP.tif"><path class="cls-61" d="M53.95,55.78c-4.08,10.83-15.29,16.99-26.7,14.64l26.32-14.55c.09-.04.17-.09.26-.13s.13-.12.11.04Z"/><path class="cls-20" d="M42.63,26.64l-22.08,12.15.12.05c-1.06.21-2.38.92-3.12,1.71-.06-.09-.26.05-.33.09-2.82,1.54-5.61,3.14-8.45,4.65.02.13-.04.24-.06.33,0-.44.09-.88.15-1.32l32.89-18.11c.3.14.58.29.88.44Z"/><path class="cls-27" d="M40.82,25.81c.31.13.61.25.93.39L8.85,44.31c.04-.32.09-.61.15-.93l31.82-17.57Z"/><path class="cls-59" d="M55.32,50.02c-.03.37-.03.76-.15,1.12,0-.07.02-.19-.02-.24l-32.58,18.01c-.26-.11-.52-.21-.78-.34l33.53-18.55Z"/><path class="cls-2" d="M46.43,54.12s.13-.03.2-.07c2.81-1.7,5.84-3.11,8.66-4.81.12-.05.07.22.07.29,0,.2-.04.33-.05.49l-33.53,18.55c-.25-.12-.49-.26-.73-.39l22.65-12.54c1.32-.31,1.71-.87,2.73-1.51Z"/><path class="cls-5" d="M54.58,53.82c-.1.35-.18.63-.29.98-.02-.08.07-.18-.08-.1-9.36,5.04-18.58,10.36-27.93,15.41l.05.12c-.35-.09-.68-.19-1.02-.29l.05-.12c9.64-5.42,19.42-10.6,29.06-16.04.14-.08.21-.16.18.06Z"/><path class="cls-35" d="M35.01,24.3c.5.06,1.03.08,1.51.24-.1,0-.19-.01-.28.04l-25.98,14.36c.11-.49.38-.92.59-1.37l24.16-13.27Z"/><path class="cls-63" d="M36.53,24.54c.34,0,.8.13,1.12.24-.1,0-.19,0-.28.04l-27.49,15.14c.12-.34.2-.72.39-1.02l25.98-14.36c.09-.05.18-.04.28-.04Z"/><path class="cls-75" d="M54.29,54.8c-.11.35-.21.63-.34.98.01-.16-.03-.08-.11-.04s-.17.09-.26.13l-26.32,14.55c-.31-.06-.61-.12-.93-.2l-.05-.12c9.36-5.05,18.57-10.37,27.93-15.41.15-.08.06.03.08.1Z"/><path class="cls-25" d="M55.07,51.72c0,.27-.1.48-.15.73-.02-.07.09-.19-.07-.1-10.14,5.89-20.65,11.17-30.82,17.01l-.05.12c-.26-.1-.52-.19-.78-.29l31.85-17.67s.02.14.02.19Z"/><path class="cls-12" d="M40.09,25.52c.25.09.48.19.73.29l-31.82,17.57c.05-.24.04-.5.15-.73.03-.07.07-.14.13-.19.21-.18.87-.49,1.16-.65,9.74-5.52,19.67-10.71,29.41-16.22l.25-.07Z"/><path class="cls-74" d="M54.93,52.46c-.06.3-.12.53-.2.83-.02-.08.07-.18-.08-.1-9.84,5.3-19.59,10.81-29.38,16.2-.18.1-.41.21-.55.35-.25-.08-.48-.15-.73-.24l.05-.12c10.17-5.84,20.68-11.12,30.82-17.01.16-.09.05.02.07.1Z"/><path class="cls-76" d="M40.09,25.52l-.25.07c-9.74,5.51-19.67,10.71-29.41,16.22-.29.16-.95.47-1.16.65-.06.05-.1.12-.13.19.01-.3.12-.59.2-.88l29.87-16.54c.3.1.58.19.88.29Z"/><path class="cls-41" d="M43.55,27.13c-.11,0-.2.01-.3.07l-8.73,4.81c-.01.08.11.05.17.05.41.01.83,0,1.25,0,.26,0,.52,0,.78,0,0,.08,0,.16,0,.24,0,.11,0,.23,0,.34,0,.13,0,.26,0,.39,0,.24,0,.49,0,.73s0,.49,0,.73c0,.37,0,.75,0,1.12,0,.28,0,.55,0,.83s0,.55,0,.83c0,.26,0,.52,0,.78,0,.2.04.47-.05.63.03-2.19-.02-4.39,0-6.59h-2.49v23.43l-.04-.03c-.01-.09,0-.18,0-.27-.01-.24,0-.49,0-.73,0-.31,0-.62,0-.93s0-.62,0-.93,0-.62,0-.93c0-.26,0-.52,0-.78,0-.24,0-.49,0-.73s0-.49,0-.73c0-.23,0-.46,0-.68,0-.26,0-.52,0-.78,0-.34,0-.68,0-1.02,0-.29,0-.59,0-.88s0-.59,0-.88c0-.26,0-.52,0-.78,0-.23,0-.46,0-.68s0-.46,0-.68c0-.24,0-.49,0-.73s0-.49,0-.73c0-.23,0-.46,0-.68,0-.19,0-.39,0-.59,0-.28,0-.55,0-.83,0-.26,0-.52,0-.78,0-.29,0-.59,0-.88,0-.32,0-.65,0-.98s0-.62,0-.93c0-.26,0-.52,0-.78,0-.23,0-.46,0-.68,0-.24,0-.49,0-.73s0-.49,0-.73c0-.26.02-.53-.02-.78l-11.64,6.39.54.1c-.7-.06-1.66-.04-2.34.1l-.12-.05,22.08-12.15c.31.15.67.25.93.49Z"/><path class="cls-40" d="M34.09,24.2c.34,0,.6.06.93.1l-24.16,13.27c.19-.4.37-.78.59-1.17l22.04-12.15c.18-.09.4-.05.61-.05Z"/><path class="cls-71" d="M39.21,25.22l-29.87,16.54c.08-.3.16-.58.24-.88l28.79-15.91c.3.08.53.15.83.24Z"/><path class="cls-10" d="M37.65,24.78c.29,0,.49.13.73.2l-28.79,15.91c.09-.31.18-.62.29-.93l27.49-15.14c.09-.05.18-.04.28-.04Z"/><path class="cls-8" d="M43.7,55.63l-22.65,12.54c-.27-.14-.53-.29-.78-.44l8.54-4.78c.22,0,.94.04,1.07,0,.09-.03.05-.46.05-.59l11.72-6.46c.25-.02.49-.04.73-.08.43-.06.89-.09,1.32-.2Z"/><path class="cls-17" d="M55.17,51.14c0,.19-.02.41-.1.59,0-.05.02-.17-.02-.19l-31.85,17.67c-.23-.1-.42-.2-.63-.29l32.58-18.01c.05.05.02.17.02.24Z"/><path class="cls-67" d="M34.09,24.2c-.2,0-.42-.03-.61.05l-22.04,12.15c.25-.46.51-.88.78-1.32l19.91-10.98c.37,0,.73,0,1.1,0l.85.1Z"/><path class="cls-72" d="M32.13,24.1l-19.91,10.98c.25-.39.44-.84.78-1.17,5.96-3.21,11.83-6.56,17.79-9.76.36.04.75-.04,1.1-.05.08,0,.16,0,.24,0Z"/><path class="cls-44" d="M54.73,53.29c-.05.18-.1.36-.15.54.03-.22-.04-.13-.18-.06-9.63,5.44-19.41,10.62-29.06,16.04l-.05.12c-.2-.06-.39-.13-.59-.2.15-.14.37-.25.55-.35,9.79-5.39,19.54-10.9,29.38-16.2.15-.08.06.03.08.1Z"/><path class="cls-19" d="M31.89,24.1c-.34.01-.73.09-1.1.05-5.96,3.2-11.84,6.55-17.79,9.76.29-.42.63-.99,1.02-1.32.37-.3,1.09-.64,1.53-.89,4.46-2.51,8.99-4.9,13.45-7.41.96-.12,1.91-.23,2.88-.2Z"/><path class="cls-73" d="M27.4,58.85h-.05c0-.19,0-.39,0-.59,0-.31,0-.62,0-.93,0-.26.03-.61,0-.85,0-.07.03-.08-.07-.07l-12.47,6.93c-.16-.18-.33-.35-.49-.54l.03-.19,13.05-7.18c.01,1.14,0,2.28,0,3.42Z"/><path class="cls-77" d="M50.39,32.98c.24.17.33.42.49.63l-9.27,5.03.54.1c-1.53-.04-3.08.27-4.29,1.22l-.15.1c-.12.1-.19.2-.29.29-.13.01-.23.12-.24.24-.18.19-.38.35-.51.59-.11.02-.07-.08-.07-.15.09-.13.05-.37.05-.54,0-.05,0-.1,0-.15l13.57-7.45c.08-.03.13.04.2.08Z"/><path class="cls-9" d="M14.81,63.34l12.47-6.93c.1-.01.06,0,.07.07.03.24,0,.59,0,.85l-11.96,6.54c.06.05.07.15.1.19-.28-.19-.46-.48-.68-.73Z"/><path class="cls-65" d="M47.36,29.81l-10.64,5.81c0-.37,0-.75,0-1.12l9.81-5.37c.29.23.55.44.83.68Z"/><path class="cls-53" d="M27.35,57.34c0,.31,0,.62,0,.93l-11.32,6.3c-.18-.17-.38-.25-.54-.49-.03-.04-.04-.14-.1-.19l11.96-6.54Z"/><path class="cls-43" d="M13.83,62.22l.13-.19,13.37-7.38c.12-.04.07.3.07.39,0,.13,0,.26,0,.39l-13.05,7.18-.03.19c-.17-.2-.33-.39-.49-.59Z"/><path class="cls-62" d="M49.17,31.57c.17.13.41.33.49.54-.1-.08-.21-.24-.33-.16l-12.66,6.99c0-.08,0-.16,0-.24.09-.16.05-.43.05-.63,4.08-2.18,8.11-4.48,12.19-6.68.06,0,.19.14.26.19Z"/><path class="cls-42" d="M27.35,53.38c.14-.09.19-.1.2.05-.08.05-.05.2-.05.29,0,.03,0,.07,0,.1-.08.07-.05.23-.05.34,0,.28.04.62-.05.88,0-.09.05-.43-.07-.39l-13.37,7.38-.13.19c-.13-.16-.26-.32-.39-.49-.04-.16.28-.28.41-.35,3.46-1.98,7.06-3.97,10.57-5.85.77-.41,1.27-.55,2-1.12.02-.01.08-.02.15-.07.13-.11.33-.31.39-.47.05-.05.1-.1.15-.15.04-.04.11-.05.1-.15.01-.02.03-.03.05-.05.07-.02.1-.07.1-.15Z"/><path class="cls-36" d="M47.9,30.3c.2.18.39.35.59.54l-11.76,6.44c0-.28,0-.55,0-.83l11.18-6.15Z"/><path class="cls-66" d="M49.65,32.1c.18.14.19.23.29.34l-13.27,7.18c-.02.16,0,.32,0,.48,0,.05.02.12-.05.15,0-.44.04-.88.05-1.32l12.66-6.99c.12-.08.22.08.33.16Z"/><path class="cls-49" d="M48.48,30.84c.23.22.55.44.68.73-.07-.05-.2-.19-.26-.19-4.08,2.2-8.1,4.5-12.19,6.68,0-.26,0-.52,0-.78l11.76-6.44Z"/><path class="cls-29" d="M47.36,29.81c.2.17.35.32.54.49l-11.18,6.15c0-.28,0-.55,0-.83l10.64-5.81Z"/><path class="cls-51" d="M19.35,55.29c.32.09.66.26.98.34l-8,4.49c-.18-.28-.33-.55-.49-.83,0-.11.07-.13.14-.17,2.3-1.37,4.75-2.52,7.05-3.89.07-.02.24.04.33.06Z"/><path class="cls-22" d="M27.35,61.97c0,.2-.04.81.05.93.01.02.03.03.05.05-.06,0-.12,0-.18.04-2.52,1.38-5.01,2.81-7.55,4.17-.07.04-.15.06-.18.14-.28-.18-.55-.35-.83-.54l8.64-4.78Z"/><path class="cls-56" d="M29.01,24.3c-4.46,2.51-8.99,4.9-13.45,7.41-.44.25-1.16.58-1.53.89.29-.49.74-.87,1.12-1.27l12.15-6.73c.58-.12,1.12-.22,1.71-.29Z"/><path class="cls-57" d="M27.35,58.26c0,.19,0,.39,0,.59,0,.03,0,.07,0,.1l-10.83,6.05c-.16-.14-.33-.28-.49-.44l11.32-6.3Z"/><path class="cls-41" d="M17.54,40.55c-.32.34-.86,1.1-1.07,1.51-.03-.1-.15,0-.2.02-2.5,1.36-4.97,2.79-7.48,4.13l-.13.19c.02-.27,0-.5.05-.78.02-.09.08-.2.06-.33,2.84-1.51,5.63-3.11,8.45-4.65.07-.04.26-.18.33-.09Z"/><path class="cls-38" d="M27.35,61.97l-8.64,4.78c-.2-.14-.39-.3-.59-.44v-.16s9.22-5.06,9.22-5.06c0,.29,0,.59,0,.88Z"/><path class="cls-64" d="M27.35,59.68l-10.35,5.76c-.18-.15-.32-.29-.49-.44l10.83-6.05c0,.24,0,.49,0,.73Z"/><path class="cls-68" d="M27.3,24.59l-12.15,6.73c.61-.63,1.14-1.14,1.81-1.71,2.61-1.35,5.14-2.88,7.74-4.24.08-.04.16-.13.21-.15.65-.33,1.67-.49,2.39-.63Z"/><path class="cls-28" d="M24.42,55.53c-3.51,1.88-7.12,3.87-10.57,5.85-.13.07-.45.19-.41.35-.09-.11-.16-.23-.24-.34,0-.07-.03-.12-.1-.15-.01-.02-.04-.03-.05-.05-.02-.1.06-.11.12-.15,3.04-1.88,6.44-3.43,9.54-5.22l1.71-.29Z"/><path class="cls-8" d="M55.41,48.84c0,.22.04.5-.05.68,0-.07.05-.34-.07-.29-2.82,1.7-5.85,3.11-8.66,4.81-.07.04-.16.05-.2.07.39-.45.75-.92,1.07-1.42l7.91-4.39c0,.18,0,.36,0,.54Z"/><path class="cls-7" d="M15.93,51.24c.1.3.25.68.39.98-.09,0-.17.03-.25.07-1.97.98-3.87,2.24-5.84,3.24l-.11.21c-.11-.29-.32-.66-.34-.98,0-.06-.02-.16.03-.2l6.12-3.31Z"/><path class="cls-16" d="M45.95,28.69c.2.15.39.29.59.44l-9.81,5.37c0-.24,0-.49,0-.73l9.22-5.08Z"/><path class="cls-65" d="M15.39,46.36c-.02.55.01,1.11,0,1.66,0-.01-.04-.05-.05-.12-.02-.15.04-.32-.02-.47l-6.42,3.56c-.04-.26-.1-.46-.1-.73,0-.1-.01-.21,0-.31,2.1-1.22,4.26-2.39,6.4-3.56.04-.02.15-.15.18-.04Z"/><path class="cls-60" d="M27.35,59.68c0,.24,0,.49,0,.73l-9.86,5.42c-.16-.12-.33-.25-.49-.39l10.35-5.76Z"/><path class="cls-13" d="M50.88,33.62c.15.19.3.38.44.59l-8.39,4.59c-.23-.03-.54-.02-.78-.05l-.54-.1,9.27-5.03Z"/><path class="cls-22" d="M55.46,47.38s0,.07,0,.1l-7.37,3.95c.1-.28.22-.73.29-1.02l7-3.95c.06.26,0,.54.02.81,0,.06.05.11.05.12Z"/><path class="cls-51" d="M52.78,36.64c.15.29.3.58.44.88l-6.3,3.47c-.18-.22-.48-.55-.68-.73l6.54-3.61Z"/><path class="cls-45" d="M27.45,62.95c.41-.04.94,0,1.37,0l-8.54,4.78c-.25-.14-.49-.28-.73-.44.03-.08.11-.1.18-.14,2.53-1.35,5.03-2.78,7.55-4.17.06-.04.12-.03.18-.04Z"/><path class="cls-26" d="M27.35,60.41c0,.23,0,.46,0,.68l-9.21,5.06v.16c-.23-.16-.43-.32-.65-.49l9.86-5.42Z"/><path class="cls-31" d="M43.55,27.13c.17.02.52.29.68.39l-8.3,4.54c-.41,0-.83.01-1.25,0-.06,0-.18.04-.17-.05l8.73-4.81c.09-.06.19-.08.3-.07Z"/><path class="cls-11" d="M51.31,34.2c.14.2.26.39.39.59l-7.66,4.25c-.25-.07-.58-.15-.83-.2-.04-.08-.17-.05-.24-.05-.02,0-.03,0-.05,0l8.39-4.59Z"/><path class="cls-4" d="M21.54,55.82c.38-.03.79.02,1.17,0-3.1,1.79-6.51,3.35-9.54,5.22-.06.04-.14.04-.12.15-.12-.16-.23-.32-.34-.49-.03-.15,0-.12.09-.17.23-.15.51-.29.75-.42,2.55-1.43,5.14-2.79,7.68-4.23.1-.07.2-.05.31-.05Z"/><path class="cls-54" d="M21.54,55.82c-.11,0-.21-.01-.31.05-2.54,1.44-5.13,2.81-7.68,4.23-.24.14-.52.28-.75.42-.09.06-.12.02-.09.17-.13-.2-.26-.39-.39-.59l8-4.49c.39.1.82.1,1.22.2Z"/><path class="cls-45" d="M55.46,47.48s0,.03,0,.05c-.09.22-.05.53-.05.78l-7.91,4.39c.18-.42.43-.84.59-1.27l7.37-3.95Z"/><path class="cls-53" d="M48.63,45.48l6.05-3.35.15-.02c-.03.09.03.14.05.2.09.23.1.45.15.68l-6.2,3.39c-.17.14-.08.49-.1.71-.09-.35-.05-.76-.05-1.12,0-.14.04-.34-.05-.44,0-.02,0-.03,0-.05Z"/><path class="cls-32" d="M45.41,28.3c.18.13.36.26.54.39l-9.22,5.08c0-.24,0-.49,0-.73l8.69-4.73Z"/><path class="cls-31" d="M16.47,42.06c-.15.28-.38.82-.49,1.12.03-.23-.27.04-.33.04l-6.95,3.84c-.09.1-.04.54-.05.71s0,.36,0,.54c-.08-.05-.05-.19-.05-.27,0-.56.01-1.08.05-1.64l.13-.19c2.51-1.34,4.98-2.77,7.48-4.13.05-.03.17-.12.2-.02Z"/><path class="cls-70" d="M52.1,35.42c.12.2.23.39.34.59l-6.67,3.65-.06.16c-.18-.13-.63-.4-.83-.49.06-.07.13-.11.21-.15,2.15-1.22,4.44-2.54,6.64-3.66.11-.06.25-.18.37-.09Z"/><path class="cls-38" d="M48.58,49.38l6.71-3.71c.08-.04.11.22.12.29.09.46.03.95.05,1.42,0,0-.05-.05-.05-.12-.01-.27.03-.54-.02-.81l-7,3.95c.08-.33.13-.69.2-1.02Z"/><path class="cls-70" d="M17.79,54.26c.19.16.48.4.68.54l-.26.06-6.61,3.64-.11.21c-.13-.25-.26-.48-.39-.73l6.69-3.71Z"/><path class="cls-39" d="M18.47,54.8c.28.19.59.32.88.49-.08-.02-.26-.08-.33-.06-2.3,1.37-4.75,2.52-7.05,3.89-.08.05-.15.06-.14.17-.11-.19-.23-.38-.34-.59l.11-.21,6.61-3.64.26-.06Z"/><path class="cls-34" d="M51.7,34.79c.14.21.26.42.39.63-.12-.09-.26.03-.37.09-2.2,1.12-4.48,2.44-6.64,3.66-.08.04-.15.09-.21.15-.2-.09-.61-.23-.83-.29l7.66-4.25Z"/><path class="cls-55" d="M44.24,27.52c.21.12.39.26.59.39l-8.1,4.39c0-.08,0-.16,0-.24-.26,0-.52,0-.78,0l8.3-4.54Z"/><path class="cls-37" d="M49.95,32.45s.09.08.15.15l-.09.17c-4.45,2.44-8.88,4.9-13.33,7.34,0-.16-.01-.32,0-.48l13.27-7.18Z"/><path class="cls-50" d="M54.44,40.65c.07.23.13.45.2.68-1.89,1.1-3.86,2.06-5.74,3.16-.12.07-.34.16-.36.3-.05-.29-.12-.64-.2-.93,2-1.08,3.98-2.19,5.97-3.28l.13.06Z"/><path class="cls-39" d="M52.44,36.01c.12.21.23.42.34.63l-6.54,3.61c-.13-.12-.39-.34-.54-.44l.06-.16,6.67-3.65Z"/><path class="cls-36" d="M15.49,49.24s-.06-.2-.07-.19l-6.22,3.51c-.05-.23-.15-.4-.15-.68,0-.06-.03-.16.03-.2l6.31-3.46c.04.33.09.68.1,1.02Z"/><path class="cls-11" d="M16.86,53.19c.14.2.4.4.49.63-.04-.02-.07-.05-.12-.04-2.14,1.17-4.31,2.33-6.42,3.56-.1-.21-.2-.41-.29-.63l6.34-3.51Z"/><path class="cls-29" d="M15.39,48.02c0,.06,0,.13,0,.2l-6.31,3.46c-.06.04-.03.14-.03.2-.11-.28-.11-.59-.15-.88l6.42-3.56c.06.15,0,.32.02.47,0,.06.05.11.05.12Z"/><path class="cls-16" d="M8.71,49.24l6.66-3.71c.11-.03.07.12.07.19.01.24-.04.45-.05.63-.03-.11-.14.01-.18.04-2.14,1.17-4.3,2.34-6.4,3.56-.02.1,0,.21,0,.31-.1-.32-.08-.69-.1-1.02Z"/><path class="cls-34" d="M17.35,53.82c.17.08.31.33.44.44l-6.69,3.71c-.11-.22-.19-.41-.29-.63,2.11-1.23,4.28-2.39,6.42-3.56.05,0,.08.03.12.04Z"/><path class="cls-9" d="M54.88,42.31c-.02-.06-.07-.11-.05-.2l-.15.02-6.05,3.35c-.02-.2-.06-.48-.1-.68.01-.15.24-.23.36-.3,1.88-1.1,3.86-2.06,5.74-3.16.09.32.22.64.24.98Z"/><path class="cls-62" d="M15.59,49.87c.05.23.09.46.15.68l-6.2,3.37c-.07-.24-.13-.48-.2-.73l6.02-3.33c.12-.05.16-.15.23,0Z"/><path class="cls-66" d="M15.74,50.55c.05.21.13.48.2.68l-6.12,3.31c-.05.04-.03.14-.03.2-.15-.24-.17-.57-.24-.83l6.2-3.37Z"/><path class="cls-47" d="M15.74,44.01c-.08.32-.08.67-.2.98,0-.07.05-.28-.07-.24l-6.81,3.76c0-.06,0-.13,0-.2,0-.18,0-.36,0-.54,2.25-1.14,4.41-2.45,6.64-3.64.11-.06.22-.11.33-.16.09-.04.13-.12.11.04Z"/><path class="cls-32" d="M8.66,48.5l6.81-3.76c.12-.04.07.17.07.24,0,.23-.03.53-.1.73,0-.07.04-.23-.07-.19l-6.66,3.71c-.01-.23-.04-.48-.05-.73Z"/><path class="cls-49" d="M15.49,49.24c.06.21.06.43.1.63-.07-.16-.11-.06-.23,0l-6.02,3.33c-.05-.22-.1-.41-.15-.63l6.22-3.51s.06.17.07.19Z"/><path class="cls-43" d="M54.19,39.91c.08.25.17.48.24.73l-.13-.06c-1.99,1.09-3.97,2.2-5.97,3.28-.05-.18-.13-.45-.2-.63l6.05-3.32Z"/><path class="cls-26" d="M55.32,44.99s.04.05.05.12c.03.28.04.58.05.86-.01-.07-.04-.33-.12-.29l-6.71,3.71c.02-.13.01-.27.05-.44.02-.09.08-.19.06-.31,2.19-1.23,4.4-2.48,6.63-3.64Z"/><path class="cls-54" d="M53.22,37.52c.1.21.2.42.29.63-.08-.07-.12,0-.19.03-1.85.98-3.8,2.03-5.6,3.09-.12.07-.34.16-.36.3-.1-.16-.32-.43-.44-.59l6.3-3.47Z"/><path class="cls-60" d="M55.27,44.5c.06.21.02.31.05.49-2.23,1.16-4.44,2.41-6.63,3.64.02.12-.04.22-.06.31-.02-.19.02-.36.05-.54,0,0,.04-.06.05-.12.03-.15-.07-.37.08-.46l6.39-3.52s.07.17.07.19Z"/><path class="cls-64" d="M55.17,43.82c.06.22.09.45.1.68,0-.03-.06-.2-.07-.19l-6.39,3.52c-.15.1-.05.31-.08.46-.01.06-.05.11-.05.12-.03-.43.02-.85.05-1.27l6.37-3.51c.01.07.06.14.07.19Z"/><path class="cls-57" d="M55.02,42.99c.06.27.15.54.15.83-.02-.06-.06-.13-.07-.19l-6.37,3.51s0-.03,0-.05c.01-.22-.07-.56.1-.71l6.2-3.39Z"/><path class="cls-18" d="M16.32,52.21c.08.17.2.43.29.59l-6.3,3.42c-.06-.16-.13-.32-.2-.49l.11-.21c1.97-1,3.87-2.25,5.84-3.24.08-.04.15-.08.25-.07Z"/><path class="cls-42" d="M47.95,42.7l.11-.21,5.79-3.19.15.08c.07.18.13.35.2.54l-6.05,3.32c-.05-.15-.14-.39-.2-.54Z"/><path class="cls-4" d="M53.51,38.16c.09.2.16.39.24.59l-6.1,3.32c-.06-.11-.22-.37-.29-.49.01-.15.24-.23.36-.3,1.8-1.06,3.75-2.11,5.6-3.09.07-.04.11-.09.19-.03Z"/><path class="cls-28" d="M53.75,38.74c.09.21.16.42.24.63l-.15-.08-5.79,3.19-.11.21c-.07-.17-.21-.48-.29-.63l6.1-3.32Z"/><path class="cls-13" d="M16.61,52.8c.06.1.18.29.24.39l-6.34,3.51c-.07-.16-.13-.33-.2-.49l6.3-3.42Z"/><path class="cls-52" d="M50.39,32.98c-.06-.04-.12-.11-.2-.08l-13.57,7.45s0-.07,0-.1c.06-.02.05-.09.05-.15,4.45-2.44,8.88-4.9,13.33-7.34l.09-.17c.1.12.26.23.29.39Z"/><path class="cls-15" d="M45.41,28.3l-8.69,4.73c0-.13,0-.26,0-.39l8.35-4.59c.12.08.23.16.34.24Z"/><path class="cls-21" d="M24.91,25.22c-.05.03-.13.11-.21.15-2.61,1.36-5.13,2.89-7.74,4.24,1.89-1.6,4-2.9,6.3-3.83.53-.21,1.1-.44,1.66-.56Z"/><path class="cls-47" d="M44.82,27.91c.08.05.17.09.24.15l-8.35,4.59c0-.11,0-.23,0-.34l8.1-4.39Z"/><path class="cls-22" d="M55.41,48.84c0-.18,0-.36,0-.54,0-.25-.04-.56.05-.78.01.35,0,.7,0,1.05,0,.08.03.22-.05.27Z"/><path class="cls-4" d="M13.2,61.39c-.04-.06-.07-.11-.1-.15.07.02.1.07.1.15Z"/><path class="cls-31" d="M34.14,33.03l-10.44,5.81c-.21-.04-.47-.08-.68-.1l-.54-.1,11.64-6.39c.05.25.02.52.02.78Z"/><path class="cls-16" d="M34.14,35.96l-5.47,2.98c-.01.08.11.05.17.05.37.01.73,0,1.1,0,0,.06,0,.13,0,.2.02.31,0,.66,0,.98,0,.29,0,.59,0,.88,0,.26,0,.52,0,.78,0,.28,0,.55,0,.83,0,.18,0,.36,0,.54,0,.24,0,.49,0,.73s0,.49,0,.73c0,.23,0,.46,0,.68,0,.24,0,.49,0,.73,0,.23,0,.46,0,.68,0,.26,0,.52,0,.78,0,.28,0,.55,0,.83s0,.55,0,.83c0,.37,0,.75,0,1.12,0,.26,0,.52,0,.78,0,.23,0,.46,0,.68,0,.24,0,.49,0,.73s0,.49,0,.73c0,.26,0,.52,0,.78,0,.31,0,.62,0,.93s0,.62,0,.93,0,.62,0,.93c0,.23,0,.46,0,.68,0,.24,0,.49,0,.73s0,.49,0,.73c0,.23,0,.46,0,.68,0,.29,0,.59,0,.88,0,.34,0,.68,0,1.02,0,.28,0,.55,0,.83,0,.12.04.56-.05.59v-23.91h-1.95c0,.15-.07.31-.1.44-.01-.09-.15.02-.18.04-.38.22-.82.4-1.14.69-.11-.1-.42-.36-.54-.44l8.15-4.59c0,.26,0,.52,0,.78Z"/><path class="cls-55" d="M34.14,33.76l-9.52,5.32c-.27-.09-.64-.19-.93-.24l10.44-5.81c0,.24,0,.49,0,.73Z"/><path class="cls-47" d="M34.14,34.5l-8.83,4.88c-.19-.09-.49-.22-.68-.29l9.52-5.32c0,.24,0,.49,0,.73Z"/><path class="cls-32" d="M34.14,34.5c0,.23,0,.46,0,.68l-8.15,4.59c-.15-.11-.51-.3-.68-.39l8.83-4.88Z"/><path class="cls-51" d="M34.14,46.99c0,.34,0,.68,0,1.02l-4.2,2.29c0-.37,0-.75,0-1.12l4.2-2.2Z"/><path class="cls-65" d="M34.14,36.89l-4.2,2.29c0-.06,0-.13,0-.2-.37,0-.73.01-1.1,0-.06,0-.18.04-.17-.05l5.47-2.98c0,.31,0,.62,0,.93Z"/><path class="cls-29" d="M34.14,37.86l-4.2,2.29c0-.32.02-.66,0-.98l4.2-2.29c0,.32,0,.65,0,.98Z"/><path class="cls-53" d="M34.14,54.51l-4.2,2.29c0-.31,0-.62,0-.93l4.2-2.29c0,.31,0,.62,0,.93Z"/><path class="cls-9" d="M34.14,53.58l-4.2,2.29c0-.31,0-.62,0-.93l4.2-2.29c0,.31,0,.62,0,.93Z"/><path class="cls-73" d="M34.14,52.65l-4.2,2.29c0-.31,0-.62,0-.93l4.2-2.29c0,.31,0,.62,0,.93Z"/><path class="cls-36" d="M34.14,38.74l-4.2,2.29c0-.29,0-.59,0-.88l4.2-2.29c0,.29,0,.59,0,.88Z"/><path class="cls-70" d="M34.14,46.11l-4.2,2.24c0-.28,0-.55,0-.83l4.2-2.29c0,.29,0,.59,0,.88Z"/><path class="cls-39" d="M34.14,46.11c0,.29,0,.59,0,.88l-4.2,2.2c0-.28,0-.55,0-.83l4.2-2.24Z"/><path class="cls-62" d="M34.14,40.35l-4.2,2.29c0-.28,0-.55,0-.83l4.2-2.29c0,.28,0,.55,0,.83Z"/><path class="cls-43" d="M34.14,50.94c0,.26,0,.52,0,.78l-4.2,2.29c0-.26,0-.52,0-.78l4.2-2.29Z"/><path class="cls-49" d="M34.14,39.52l-4.2,2.29c0-.26,0-.52,0-.78l4.2-2.29c0,.26,0,.52,0,.78Z"/><path class="cls-34" d="M34.14,45.23l-4.2,2.29c0-.26,0-.52,0-.78l4.2-2.29c0,.26,0,.52,0,.78Z"/><path class="cls-54" d="M34.14,48.8l-4.2,2.29c0-.26,0-.52,0-.78l4.2-2.29c0,.26,0,.52,0,.78Z"/><path class="cls-64" d="M34.14,55.24c0,.09,0,.18,0,.27l.04.03,1.81-.05s0,.07,0,.1l-1.27.02-4.78,2.61c0-.24,0-.49,0-.73l4.2-2.24Z"/><path class="cls-7" d="M34.14,42.35l-4.2,2.29c0-.24,0-.49,0-.73l4.2-2.29c0,.24,0,.49,0,.73Z"/><path class="cls-28" d="M34.14,50.21l-4.2,2.29c0-.24,0-.49,0-.73l4.2-2.29c0,.24,0,.49,0,.73Z"/><path class="cls-42" d="M34.14,50.94l-4.2,2.29c0-.24,0-.49,0-.73l4.2-2.29c0,.24,0,.49,0,.73Z"/><path class="cls-4" d="M34.14,48.8c0,.23,0,.46,0,.68l-4.2,2.29c0-.23,0-.46,0-.68l4.2-2.29Z"/><path class="cls-18" d="M34.14,42.35c0,.24,0,.49,0,.73l-4.2,2.24c0-.23,0-.46,0-.68l4.2-2.29Z"/><path class="cls-57" d="M34.14,55.24l-4.2,2.24c0-.23,0-.46,0-.68l4.2-2.29c0,.24-.01.49,0,.73Z"/><path class="cls-37" d="M34.14,40.94c0,.23,0,.46,0,.68l-4.2,2.29c0-.24,0-.49,0-.73l4.2-2.24Z"/><path class="cls-46" d="M34.14,43.09c0,.23,0,.46,0,.68l-4.2,2.29c0-.24,0-.49,0-.73l4.2-2.24Z"/><path class="cls-11" d="M34.14,44.45l-4.2,2.29c0-.23,0-.46,0-.68l4.2-2.29c0,.23,0,.46,0,.68Z"/><path class="cls-6" d="M34.14,40.35c0,.19,0,.39,0,.59l-4.2,2.24c0-.18,0-.36,0-.54l4.2-2.29Z"/><path class="cls-45" d="M40.43,55.73c.25.05.69.08.95.1.33.02.67-.02,1,0-.24.03-.48.05-.73.08l-11.72,6.46c0-.28,0-.55,0-.83l10.49-5.81Z"/><path class="cls-55" d="M8.66,47.77c0-.17-.04-.61.05-.71l6.95-3.84c.06,0,.35-.27.33-.04-.08.22-.19.6-.24.83.01-.16-.03-.08-.11-.04-.11.05-.22.1-.33.16-2.23,1.18-4.39,2.5-6.64,3.64Z"/><path class="cls-7" d="M27.25,45.14s0,.07,0,.1c.01.1.04.22.05.29.02.21.03.38.05.59l-8.78,4.88c-.14-.37-.2-.59-.29-.98l.09-.17c2.86-1.48,5.61-3.18,8.46-4.67.1-.05.22-.12.32-.16.09-.04.03.09.1.12Z"/><path class="cls-65" d="M25.59,41.72l-7.52,4.1c.05-.43.1-.71.2-1.12l6.34-3.51c.45.17.59.24.98.54Z"/><path class="cls-66" d="M18.13,49.24l8.84-4.95.14.07c.06.28.1.5.15.78-.07-.04,0-.16-.1-.12-.1.04-.22.11-.32.16-2.85,1.49-5.61,3.18-8.46,4.67l-.09.17c-.07-.29-.11-.47-.15-.78Z"/><path class="cls-62" d="M26.86,43.57c.1.29.17.47.24.78l-.14-.07-8.84,4.95c-.02-.15-.05-.25-.05-.44,0-.16-.05-.39.08-.48,2.86-1.49,5.62-3.16,8.47-4.66.08-.04.14-.09.24-.08Z"/><path class="cls-36" d="M26.18,42.31c.23.29.27.35.44.68h-.21c-2.79,1.55-5.6,3.08-8.38,4.64,0-.19-.04-.8.05-.9l8.1-4.42Z"/><path class="cls-49" d="M26.62,42.99c.12.23.16.34.24.59-.1-.01-.16.03-.24.08-2.85,1.5-5.61,3.17-8.47,4.66-.13.1-.08.33-.08.48-.09-.15-.05-.4-.05-.59,0-.19,0-.39,0-.59,2.78-1.56,5.59-3.08,8.38-4.63h.21Z"/><path class="cls-11" d="M27.35,47.38c0,.28,0,.55,0,.83l-7.81,4.34c-.22-.23-.31-.31-.49-.59l8.3-4.59Z"/><path class="cls-29" d="M26.18,42.31l-8.1,4.42c-.09.1-.05.72-.05.9s0,.39,0,.59c-.08-.05-.05-.19-.05-.27,0-.56,0-1.08.05-1.64,0-.12.03-.3.05-.44,0-.02,0-.03,0-.05l7.52-4.1c.31.24.35.29.59.59Z"/><path class="cls-18" d="M27.35,46.11c.06.74.06,1.48.05,2.22,0,.08.03.22-.05.27,0-.13,0-.26,0-.39,0-.28,0-.55,0-.83,0-.19.02-.4-.02-.59l-8.52,4.73c-.11-.21-.16-.31-.24-.54l8.78-4.88Z"/><path class="cls-34" d="M27.35,48.21c0,.13,0,.26,0,.39,0,.19-.03.37-.05.54.03-.22-.04-.13-.18-.06-2.28,1.29-4.72,2.49-6.95,3.84-.08.05-.14-.02-.05.12-.3-.2-.33-.23-.59-.49l7.81-4.34Z"/><path class="cls-70" d="M27.3,49.14c-.03.32-.01.68-.15.98,0-.05.02-.17-.02-.19l-6.27,3.51c-.35-.13-.44-.19-.73-.39-.09-.14-.03-.07.05-.12,2.22-1.35,4.67-2.55,6.95-3.84.14-.08.21-.16.18.06Z"/><path class="cls-13" d="M27.35,47.38l-8.3,4.59c-.12-.18-.15-.26-.24-.44l8.52-4.73c.05.19.02.39.02.59Z"/><path class="cls-39" d="M27.16,50.11c-.01.33-.14.59-.24.88.01-.16-.03-.08-.11-.04-1.4.62-3.14,1.69-4.51,2.47-.12.07-.28.14-.36.25-.43-.05-.67-.1-1.07-.24l6.27-3.51s.03.14.02.19Z"/><path class="cls-51" d="M26.91,50.99c-.78,2.29-2.69,2.93-4.98,2.68.08-.11.24-.18.36-.25,1.37-.78,3.1-1.85,4.51-2.47.09-.04.13-.12.11.04Z"/><path class="cls-16" d="M23.74,40.94c.39.07.51.1.88.24l-6.34,3.51c.08-.35.13-.54.24-.88l5.22-2.88Z"/><path class="cls-32" d="M22.86,40.84c.37-.02.54.04.88.1l-5.22,2.88c.09-.26.27-.87.49-1.02l3.48-1.91c.12-.06.25-.03.38-.04Z"/><path class="cls-15" d="M22.86,40.84c-.13,0-.26-.02-.38.04l-3.48,1.91c.54-1.07,1.63-1.78,2.81-1.95.31-.04.75-.1,1.04,0Z"/><path class="cls-65" d="M27.84,39.47c-.11.59-.15,1.21-.24,1.81-.09.02-.13-.01-.2-.07-.26-.22-.58-.73-.88-1,.32-.29.76-.47,1.14-.69.03-.02.17-.13.18-.04Z"/><path class="cls-52" d="M36.58,41.04c0-.16-.03-.41.05-.54,0,.17.04.41-.05.54Z"/><path class="cls-52" d="M37.41,40.35c-.08.07-.17.17-.24.24.01-.12.12-.23.24-.24Z"/><path class="cls-52" d="M37.84,39.96c-.05.04-.14.09-.15.1l.15-.1Z"/><path class="cls-13" d="M43.21,38.84c-.08-.01-.19-.04-.24-.05.08,0,.2-.03.24.05Z"/><path class="cls-9" d="M48.68,45.97c-.1-.1-.04-.3-.05-.44.09.1.05.3.05.44Z"/><path class="cls-33" d="M40.38,40.94l-2.68,1.56c.69-1.01,1.49-1.37,2.68-1.56Z"/><path class="cls-30" d="M23.01,38.74c.21.02.47.06.68.1.28.05.66.15.93.24.2.07.5.2.68.29.17.09.53.29.68.39.12.08.42.34.54.44.3.27.61.79.88,1,.07.06.1.09.2.07.09-.59.13-1.22.24-1.81.02-.13.1-.29.1-.44h1.95v23.91c-.14.04-.86,0-1.07,0-.43,0-.96-.04-1.37,0-.01-.02-.03-.03-.05-.05v-1.81c0-.75,0-1.5,0-2.24,0-1.14.01-2.28,0-3.42,0-.13,0-.26,0-.39.09-.26.05-.6.05-.88.09-.07.05-.23.05-.34,0-.03,0-.07,0-.1.08-.05.05-.2.05-.29,0-.15-.05-.14-.2-.05-.11.07-.07.12-.1.15-.01.02-.04.03-.05.05-.02.03-.12.05-.1.15-.05.05-.1.1-.15.15-.18.17-.39.33-.54.54-.73.57-1.23.71-2,1.12l-1.71.29c-.38.02-.79-.03-1.17,0-.4-.09-.83-.1-1.22-.2-.31-.08-.66-.26-.98-.34-.29-.17-.6-.3-.88-.49-.21-.14-.49-.37-.68-.54-.13-.11-.27-.36-.44-.44-.09-.24-.35-.43-.49-.63-.07-.1-.19-.29-.24-.39-.09-.16-.21-.41-.29-.59-.14-.29-.29-.68-.39-.98-.07-.2-.15-.48-.2-.68-.05-.22-.1-.46-.15-.68-.04-.2-.04-.42-.1-.63,0-.34-.06-.69-.1-1.02,0-.06,0-.13,0-.2.01-.55-.02-1.11,0-1.66,0-.19.06-.4.05-.63.07-.21.1-.5.1-.73.12-.31.12-.66.2-.98.05-.23.17-.61.24-.83.1-.3.34-.84.49-1.12.22-.41.75-1.17,1.07-1.51.75-.79,2.06-1.5,3.12-1.71.69-.13,1.65-.16,2.34-.1ZM19.01,42.79c-.22.16-.4.76-.49,1.02-.12.34-.17.53-.24.88-.09.41-.15.69-.2,1.12,0,.02,0,.03,0,.05-.1.1-.03.3-.05.44-.04.56-.06,1.08-.05,1.64,0,.08-.03.22.05.27,0,.18-.04.44.05.59,0,.19.03.29.05.44.03.31.08.49.15.78.09.39.15.6.29.98.09.22.14.33.24.54.09.18.12.26.24.44.18.27.27.36.49.59.25.26.29.29.59.49s.39.26.73.39c.4.15.65.2,1.07.24,2.29.25,4.2-.39,4.98-2.68.1-.29.23-.55.24-.88.13-.3.12-.66.15-.98.01-.16.04-.35.05-.54.08-.05.05-.19.05-.27,0-.74.01-1.48-.05-2.22-.02-.2-.03-.38-.05-.59,0-.09.04-.24-.05-.29,0-.03,0-.07,0-.1-.04-.28-.08-.51-.15-.78-.07-.31-.14-.49-.24-.78-.09-.24-.13-.35-.24-.59-.16-.33-.21-.4-.44-.68s-.27-.35-.59-.59c-.39-.3-.53-.36-.98-.54-.36-.14-.48-.18-.88-.24-.34-.06-.51-.11-.88-.1-.3-.09-.73-.04-1.04,0-1.18.17-2.27.87-2.81,1.95Z"/><path class="cls-53" d="M27.4,61.09h-.05c0-.23,0-.46,0-.68,0-.24,0-.49,0-.73s0-.49,0-.73c0-.03,0-.07,0-.1h.05c0,.75,0,1.5,0,2.24Z"/><path class="cls-14" d="M26.42,54.41c.15-.21.35-.36.54-.54-.05.16-.26.36-.39.47-.06.05-.13.06-.15.07Z"/><path class="cls-14" d="M27.45,54.16c0-.11-.04-.28.05-.34,0,.11.04.27-.05.34Z"/><path class="cls-14" d="M27.5,53.73c0-.09-.03-.24.05-.29,0,.09.03.24-.05.29Z"/><path class="cls-14" d="M27.11,53.73c-.02-.1.07-.11.1-.15.01.1-.05.11-.1.15Z"/><path class="cls-14" d="M27.25,53.53s-.01-.08.1-.15c0,.07-.03.12-.1.15Z"/><path class="cls-60" d="M27.4,62.9c-.09-.11-.05-.73-.05-.93,0-.29,0-.59,0-.88h.05v1.81Z"/><path class="cls-65" d="M18.03,46.31c.02-.14-.05-.34.05-.44-.01.14-.04.32-.05.44Z"/><path class="cls-66" d="M27.3,45.53c0-.07-.04-.2-.05-.29.09.05.04.2.05.29Z"/><path class="cls-22" d="M39.36,55.43c.29.01.76.24,1.07.29l-10.49,5.81c0-.34,0-.68,0-1.02l9.21-5.06c.07-.02.14-.01.21-.01Z"/><path class="cls-73" d="M36.97,50.16l8.59-4.76c.18-.05.37-.32.44-.02.05.4.12.81.1,1.22,0,0-.04-.06-.05-.12-.01-.12.01-.25,0-.37h-.11s-8.72,4.88-8.72,4.88c-.12-.32-.17-.49-.24-.83Z"/><path class="cls-24" d="M37.21,50.99l8.72-4.87h.11c.01.11-.02.24,0,.36,0,.06.05.11.05.12,0,.13,0,.26,0,.39l-8.54,4.78c-.17-.31-.22-.45-.34-.78Z"/><path class="cls-53" d="M46.09,46.99c.01.4,0,.8,0,1.2,0,.08.03.22-.05.27,0-.18.02-.37-.02-.54l-8.03,4.49c-.2-.23-.29-.37-.44-.63l8.54-4.78Z"/><path class="cls-38" d="M38.48,55.04c.28.14.6.25.88.39-.07,0-.14,0-.21.01l-9.21,5.06c0-.29,0-.59,0-.88l8.54-4.59Z"/><path class="cls-43" d="M45.85,44.55c.07.29.11.53.15.83-.07-.3-.26-.03-.44.02l-8.59,4.76c-.04-.2-.1-.3-.1-.54,0-.07-.03-.2.03-.25l8.95-4.83Z"/><path class="cls-42" d="M45.65,43.87c.08.25.14.42.2.68l-8.95,4.83c-.06.05-.03.18-.03.25-.09-.21-.09-.49-.1-.73,0-.06,0-.13,0-.2l8.88-4.83Z"/><path class="cls-54" d="M44.82,42.26c.19.14.23.3.34.49l-8.44,4.59c0-.26-.01-.52,0-.77l7.97-4.38s.08.05.12.08Z"/><path class="cls-26" d="M37.94,54.7c.19.07.38.26.54.34l-8.54,4.59c0-.23,0-.46,0-.68,1.98-1.09,3.96-2.18,5.94-3.26.06-.03.1-.1.11-.11.56-.31,1.16-.57,1.71-.91.08-.03.17,0,.24.03Z"/><path class="cls-57" d="M46.04,48.45c0,.15.04.38-.05.49,0-.07.05-.28-.07-.24l-7.44,4.15c-.22-.17-.3-.22-.49-.44l8.03-4.49c.04.17.03.36.02.54Z"/><path class="cls-4" d="M45.16,42.74c.15.25.18.32.29.59l-.26-.04c-2.62,1.42-5.22,2.89-7.83,4.33-.2.11-.43.24-.65.3,0-.19,0-.39,0-.59l8.44-4.59Z"/><path class="cls-51" d="M44.48,41.87c.13.07.31.25.34.39-.04-.03-.08-.06-.12-.08l-7.97,4.38c-.02.26,0,.52,0,.77,0,.19,0,.39,0,.59,0,.1,0,.2,0,.29-.08-.05-.05-.19-.05-.27,0-.52-.07-1.41.05-1.88,0-.04.06-.18.08-.2l7.46-4.09c.07.03.16.06.22.1Z"/><path class="cls-3" d="M43.94,41.48c.18.08.42.23.54.39-.06-.03-.15-.06-.22-.1l-7.46,4.09s-.07.16-.08.2c-.02-.31.05-.62.1-.93l6.75-3.72c.13-.08.25,0,.38.06Z"/><path class="cls-64" d="M38.48,52.85l7.44-4.15c.12-.03.07.17.07.24,0,.27-.06.4-.1.63-.02-.08.07-.18-.08-.1-2.07,1.12-4.15,2.26-6.2,3.42-.17.1-.4.2-.5.35-.3-.14-.38-.19-.63-.39Z"/><path class="cls-70" d="M42.09,40.89c.33-.03.82.09,1.12.24-.15,0-.25.08-.37.14l-5.92,3.28c.05-.26.1-.71.24-.93.13-.2,1.01-.64,1.28-.79,1.14-.64,2.3-1.23,3.43-1.89.07-.04.14-.05.21-.05Z"/><path class="cls-60" d="M45.9,49.58c-.06.34-.1.51-.2.83.03-.22-.04-.13-.18-.06-1.82,1.03-3.76,1.98-5.53,3.06-.08.05-.14-.02-.05.12-.34-.08-.51-.14-.83-.29.11-.15.34-.25.5-.35,2.05-1.16,4.13-2.3,6.2-3.42.15-.08.06.03.08.1Z"/><path class="cls-69" d="M45.46,43.33c.04.09.06.15.1.24l-8.76,4.83c-.05.09-.02.2-.02.29,0,.06,0,.13,0,.2-.09-.18-.05-.47-.05-.68,0-.1,0-.2,0-.29.22-.06.45-.19.65-.3,2.61-1.44,5.21-2.91,7.83-4.33l.26.04Z"/><path class="cls-26" d="M45.7,50.41c-.1.33-.16.52-.29.83.05-.18-.21,0-.25.02-1.46.78-2.89,1.62-4.34,2.42-.34-.03-.54-.06-.88-.15-.09-.14-.03-.07.05-.12,1.77-1.08,3.72-2.03,5.53-3.06.14-.08.21-.16.18.06Z"/><path class="cls-38" d="M45.41,51.24c-.89,2.06-2.42,2.64-4.59,2.44,1.45-.8,2.88-1.63,4.34-2.42.03-.02.3-.21.25-.02Z"/><path class="cls-39" d="M43.21,41.13c.21,0,.58.19.73.34-.12-.05-.24-.14-.38-.06l-6.75,3.72c.03-.22.05-.37.1-.59l5.92-3.28c.13-.06.22-.14.37-.14Z"/><path class="cls-34" d="M42.09,40.89c-.08,0-.15,0-.21.05-1.13.66-2.29,1.25-3.43,1.89-.27.15-1.15.59-1.28.79.07-.43.3-.78.54-1.12l2.68-1.56c.52-.08.91-.1,1.44-.1.08,0,.22-.03.27.05Z"/><path class="cls-28" d="M45.56,43.57c.04.11.06.18.1.29l-8.88,4.83c0-.09-.02-.2.02-.29l8.76-4.83Z"/><path class="cls-60" d="M37.94,54.7c-.08-.03-.16-.06-.24-.03-.55.33-1.14.6-1.71.91,0-.03,0-.07,0-.1.05-.19.1-.39.15-.59.3-.34.8-.47,1.17-.73.2.19.45.33.63.54Z"/><path class="cls-58" d="M37.31,54.16c-.37.26-.88.39-1.17.73.12-.5.24-1.01.34-1.51.08-.01.15,0,.22.04.14.1.44.57.61.74Z"/><path class="cls-60" d="M35.99,55.58s-.05.07-.11.11c-1.98,1.08-3.96,2.17-5.94,3.26,0-.24,0-.49,0-.73l4.78-2.61,1.27-.02Z"/></g></svg>