<?xml version="1.0" encoding="UTF-8"?><svg id="Layer_1" xmlns="http://www.w3.org/2000/svg" viewBox="0 0 200 94.98"><defs><style>.cls-1{fill:#252a2f;}.cls-2{fill:#fec131;}</style></defs><rect class="cls-1" x="-1.18" y="-1.86" width="204.71" height="96.84"/><g id="URuNbZ.tif"><path class="cls-2" d="M13.37,65.62c-2.89-.09-5.29-2.3-5.75-5.4l-.02-29.54c.87-8.6,8.97-13.72,16.37-10.28,8.94,5.99,18.69,11.12,27.54,17.21,1.36.93,2.61,1.92,3.61,3.29,4.54,6.18,2.63,15.82-4.01,19.13l1.57-2.58c2.32-4.8.91-10.56-3.09-13.68-8.62-5.32-17.11-10.92-25.78-16.13-2.24-1.35-3.51-2.68-6.34-1.76-1.7.55-4.11,3.05-4.11,5.07v34.66Z"/><path class="cls-2" d="M23.14,39.2c2.07,1.29,4.14,2.55,6.16,3.8,3.07,1.88,6.23,3.82,9.32,5.78-.23.13-.45.26-.67.38-.91.51-1.78,1-2.51,1.46-1.9,1.2-3.8,2.42-5.69,3.64-2.16,1.39-4.36,2.81-6.58,4.19l-.04-19.24M19.92,32.66c-.25,0-.51.06-.62.18-.14.15-.14.5-.16.71l.06,30.86c.11.37.34.5.64.5.7,0,1.72-.77,2.15-1.03,5.25-3.18,10.4-6.6,15.6-9.88,1.97-1.24,5.57-3,7.18-4.46.46-.42.67-.85.2-1.4-.3-.34-2.33-1.55-2.89-1.9-7.13-4.59-14.46-8.85-21.59-13.46-.13-.08-.34-.12-.56-.12h0Z"/><path class="cls-2" d="M7.6,64.4l.98,2.54c2.49,5.02,8.31,7.03,13.02,4.42l27-16.99c.74-.21.96,1.59,1,2.19.23,3.07-.78,4.85-3.07,6.47-7.25,5.12-15.57,9.35-22.98,14.26-6.56,2.75-13.8-1.07-15.62-8.45-.1-.39-.34-1.34-.34-1.67v-2.79Z"/><path class="cls-2" d="M50.93,60.04c.08.05.08.09,0,.14v-.14Z"/></g><path class="cls-2" d="M76.2,51.87h-3.76v5.79h-4.97v-19.98h8.73c4.97,0,8.29,2.7,8.29,7.02,0,2.62-1.26,4.73-3.38,5.97l4.7,6.99h-5.79l-3.82-5.79ZM76.12,47.41c1.91,0,3.41-1.06,3.41-2.7s-1.5-2.65-3.41-2.65h-3.67v5.35h3.67Z"/><path class="cls-2" d="M93.28,54.23l-1.32,3.44h-5.29l8.49-20.1h4.76l8.46,20.1h-5.29l-1.35-3.44h-8.46ZM97.51,43.35l-2.59,6.64h5.17l-2.59-6.64Z"/><path class="cls-2" d="M118.52,37.68c6.29,0,10.79,4.09,10.79,9.93s-4.5,10.05-10.79,10.05h-8.02v-19.98h8.02ZM118.52,53.2c3.26,0,5.73-2.41,5.73-5.58s-2.47-5.47-5.73-5.47h-3.06v11.05h3.06Z"/><path class="cls-2" d="M135.75,54.23l-1.32,3.44h-5.29l8.49-20.1h4.76l8.46,20.1h-5.29l-1.35-3.44h-8.46ZM139.98,43.35l-2.59,6.64h5.17l-2.59-6.64Z"/><path class="cls-2" d="M161.7,51.87h-3.76v5.79h-4.97v-19.98h8.73c4.97,0,8.29,2.7,8.29,7.02,0,2.62-1.26,4.73-3.38,5.97l4.7,6.99h-5.79l-3.82-5.79ZM161.61,47.41c1.91,0,3.41-1.06,3.41-2.7s-1.5-2.65-3.41-2.65h-3.67v5.35h3.67Z"/><path class="cls-2" d="M181.89,51.87h-3.76v5.79h-4.97v-19.98h8.73c4.97,0,8.29,2.7,8.29,7.02,0,2.62-1.26,4.73-3.38,5.97l4.7,6.99h-5.79l-3.82-5.79ZM181.8,47.41c1.91,0,3.41-1.06,3.41-2.7s-1.5-2.65-3.41-2.65h-3.67v5.35h3.67Z"/></svg>