<?xml version="1.0" encoding="UTF-8"?><svg id="Layer_1" xmlns="http://www.w3.org/2000/svg" viewBox="0 0 200 94.98"><defs><style>.cls-1{fill:#3a4052;}.cls-2{fill:#00cbfd;}.cls-3{fill:none;stroke:#00cbfd;stroke-miterlimit:10;}</style></defs><rect class="cls-1" x="-1.18" y="-1.86" width="204.71" height="96.84"/><path class="cls-2" d="M82.11,45.99h-5c-.26-1.5-1.18-2.7-3.29-2.7-1.76,0-2.91.76-2.91,2.06,0,1.15.82,1.65,2.41,1.97l2.79.65c3.67.79,6.02,2.29,6.02,5.73,0,4-3.29,6.49-8.29,6.49-4.5,0-8.55-2.17-9.02-7.11h5c.32,1.76,1.82,2.91,4.17,2.91,1.76,0,2.82-.71,2.82-1.82,0-.71-.38-1.44-2.12-1.76l-3.29-.71c-3.94-.85-5.79-2.64-5.79-5.82,0-4,3.23-6.52,7.93-6.52,3.23,0,8.05,1.26,8.55,6.64Z"/><path class="cls-2" d="M105.59,49.79c0,5.82-4.55,10.4-10.58,10.4s-10.58-4.58-10.58-10.4,4.55-10.4,10.58-10.4,10.58,4.58,10.58,10.4ZM100.57,49.79c0-3.14-2.32-5.79-5.55-5.79s-5.55,2.64-5.55,5.79,2.32,5.79,5.55,5.79,5.55-2.65,5.55-5.79Z"/><path class="cls-2" d="M127.02,59.78h-3.82l-9.58-10.96v10.96h-4.97v-19.98h3.79l9.64,11.26v-11.26h4.94v19.98Z"/><path class="cls-2" d="M135.75,56.34l-1.32,3.44h-5.29l8.49-20.1h4.76l8.46,20.1h-5.29l-1.35-3.44h-8.46ZM139.98,45.47l-2.59,6.64h5.17l-2.59-6.64Z"/><path class="cls-2" d="M161.7,53.99h-3.76v5.79h-4.97v-19.98h8.73c4.97,0,8.29,2.7,8.29,7.02,0,2.62-1.26,4.73-3.38,5.97l4.7,6.99h-5.79l-3.82-5.79ZM161.61,49.52c1.91,0,3.41-1.06,3.41-2.7s-1.5-2.65-3.41-2.65h-3.67v5.35h3.67Z"/><path class="cls-2" d="M181.89,53.99h-3.76v5.79h-4.97v-19.98h8.73c4.97,0,8.29,2.7,8.29,7.02,0,2.62-1.26,4.73-3.38,5.97l4.7,6.99h-5.79l-3.82-5.79ZM181.8,49.52c1.91,0,3.41-1.06,3.41-2.7s-1.5-2.65-3.41-2.65h-3.67v5.35h3.67Z"/><g id="i3JoOo.tif"><path class="cls-3" d="M55.25,25.46l-8.07,8.01c-.28.22-.47-.32-.63-.35-1.04.74-1.88,1.84-2.78,2.78-.3.31-.87.7-1.18,1.04-.13.15-.88.99-.91,1.05-.21.45,1.09,1.66,1.44,1.5.52-.64,4.8-4.69,4.74-5.03-.03-.19-.49-.35-.34-.51l8.14-7.93c.59.63,2.45,2.1,2.2,2.96l-7.16,7.1c-3.64,4.02-3.88,10.3-3.38,15.46.73,7.68,3.72,10,8.69,15.1.41.43,1.9,1.24,1.47,1.88s-1.78,1.83-2.37,2.43l-8-8.34c-.1-.23.33-.51.33-.63,0-.07-.48-.51-.53-.69l-4.59-4.46c-.16-.13-.23-.02-.35.07-.25.17-1.24,1.16-1.12,1.4l5.16,5.15c.34.07.24-.76.84-.29l7.85,8.22c-.43.42-2.04,2.2-2.54,2.07-3.55-3.17-6.38-7.35-11.02-9.03-4.16-1.5-12.88-1.44-17.04.07-3.86,1.41-6.99,5.22-9.88,8.06-.35.34-.53.83-1.06,1.02-1.11-.51-1.84-1.52-2.69-2.34,1.02-.84,7.43-7.95,8-7.93.17,0,.3.19.45.26.66-.42,4.88-4.68,4.88-5.04,0-.27-.65-.69-.89-.92s-.16-.68-.7-.29l-4.58,4.74c-.29.64.56.38.28.84l-8,7.93c-.28-.28-2.25-2.39-2.22-2.55,1.78-1.8,3.6-3.54,5.34-5.38,3.61-3.82,4.84-7.09,5.09-12.44s-.47-11.21-4.25-15.24l-6.58-6.6c-.01-.16,1.65-2.05,1.91-2.34.12-.12.27-.09.28-.1l8.28,8.07c.09.21-.54.46-.33.82l4.73,4.73c.34.2,1.96-1.29,1.3-1.79-1.17-1.05-2.2-2.27-3.33-3.35-.23-.22-1.08-1.04-1.29-1.08-.33-.08-.45.34-.73.2l-8.21-8.15c.87-.87,1.8-1.67,2.71-2.5,2.96,2.58,5.7,6.48,9.11,8.42,6.79,3.87,19.19,3.39,25.03-2.24l5.95-6.02c.3-.05,2.22,1.87,2.55,2.21ZM26.83,54.86c9.24,8.08,20.72-6.6,11.1-13.82-8.81-6.61-19.89,6.14-11.1,13.82Z"/><path class="cls-2" d="M54.7,71.36l-7.85-8.22c-.6-.47-.5.36-.84.29l-5.16-5.15c-.12-.24.87-1.23,1.12-1.4.12-.08.19-.2.35-.07l4.59,4.46c.05.18.53.62.53.69,0,.12-.43.4-.33.63l8,8.34c-.14.14-.28.28-.42.42Z"/><path class="cls-2" d="M55.67,26.01l-8.14,7.93c-.15.15.31.32.34.51.06.34-4.23,4.38-4.74,5.03-.35.16-1.65-1.05-1.44-1.5.03-.06.78-.9.91-1.05.31-.34.88-.73,1.18-1.04.9-.94,1.73-2.04,2.78-2.78.16.03.35.57.63.35l8.07-8.01c.25.25.33.47.42.56Z"/><path class="cls-2" d="M9.91,25.6l8.21,8.15c.28.14.4-.28.73-.2.21.05,1.06.86,1.29,1.08,1.13,1.08,2.16,2.31,3.33,3.35.66.5-.96,1.98-1.3,1.79l-4.73-4.73c-.21-.36.42-.61.33-.82l-8.28-8.07c.08-.08.17-.31.42-.56Z"/><path class="cls-2" d="M9.91,70.8l8-7.93c.28-.46-.58-.19-.28-.84l4.58-4.74c.54-.4.46.04.7.29s.89.66.89.92c0,.35-4.22,4.62-4.88,5.04-.15-.07-.28-.26-.45-.26-.56-.02-6.97,7.09-8,7.93-.08-.07-.31-.16-.56-.42Z"/><path class="cls-2" d="M26.83,54.86c-8.78-7.68,2.29-20.43,11.1-13.82,9.61,7.21-1.86,21.9-11.1,13.82Z"/></g></svg>